<mxfile host="app.diagrams.net" modified="2022-03-10T06:03:42.583Z" agent="5.0 (Macintosh; Intel Mac OS X 10_15_7) AppleWebKit/537.36 (KHTML, like Gecko) Chrome/99.0.4844.51 Safari/537.36" etag="sFCJEPTH9l-9nr82Wv1_" version="17.0.0" type="github">
  <diagram name="Page-1" id="bfe91b75-5d2c-26a0-9c1d-138518896778">
    <mxGraphModel dx="3709" dy="3010" grid="1" gridSize="10" guides="1" tooltips="1" connect="1" arrows="1" fold="1" page="1" pageScale="1" pageWidth="1100" pageHeight="850" background="none" math="0" shadow="0">
      <root>
        <mxCell id="0" />
        <mxCell id="1" parent="0" />
        <mxCell id="oj0V7E_Q8fi1NZaQkgy_-39" value="colo / dc /&#xa;on-premises" style="sketch=0;points=[[0,0,0],[0.25,0,0],[0.5,0,0],[0.75,0,0],[1,0,0],[1,0.25,0],[1,0.5,0],[1,0.75,0],[1,1,0],[0.75,1,0],[0.5,1,0],[0.25,1,0],[0,1,0],[0,0.75,0],[0,0.5,0],[0,0.25,0]];rounded=1;absoluteArcSize=1;arcSize=2;html=1;strokeColor=none;gradientColor=none;shadow=0;dashed=0;fontSize=12;fontColor=#9E9E9E;align=left;verticalAlign=top;spacing=10;spacingTop=-4;fillColor=#EFEBE9;" vertex="1" parent="1">
          <mxGeometry x="1330" y="1170" width="850" height="440" as="geometry" />
        </mxCell>
        <mxCell id="7c3789c024ecab99-81" value="站点云端层" style="rounded=1;whiteSpace=wrap;html=1;shadow=0;comic=0;strokeColor=#036897;strokeWidth=2;fillColor=none;fontFamily=Verdana;fontSize=28;fontColor=#6881B3;align=center;arcSize=11;verticalAlign=top;" parent="1" vertex="1">
          <mxGeometry x="2250" width="1170" height="1500" as="geometry" />
        </mxCell>
        <mxCell id="7c3789c024ecab99-78" value="站点协议层" style="rounded=1;whiteSpace=wrap;html=1;shadow=0;comic=0;strokeColor=#036897;strokeWidth=2;fillColor=none;fontFamily=Verdana;fontSize=28;fontColor=#6881B3;align=center;arcSize=11;verticalAlign=top;" parent="1" vertex="1">
          <mxGeometry x="75" y="20" width="1085" height="1370" as="geometry" />
        </mxCell>
        <mxCell id="7c3789c024ecab99-55" style="edgeStyle=none;html=1;labelBackgroundColor=none;endArrow=none;endFill=0;strokeWidth=2;fontFamily=Verdana;fontSize=28;fontColor=#6881B3;" parent="1" source="7c3789c024ecab99-8" target="7c3789c024ecab99-54" edge="1">
          <mxGeometry relative="1" as="geometry">
            <mxPoint x="1660" y="837.0000000000002" as="targetPoint" />
          </mxGeometry>
        </mxCell>
        <mxCell id="7c3789c024ecab99-8" value="" style="fontColor=#0066CC;verticalAlign=top;verticalLabelPosition=bottom;labelPosition=center;align=center;html=1;fillColor=#CCCCCC;strokeColor=#6881B3;gradientColor=none;gradientDirection=north;strokeWidth=2;shape=mxgraph.networks.firewall;rounded=0;shadow=0;comic=0;" parent="1" vertex="1">
          <mxGeometry x="1490" y="847" width="100" height="100" as="geometry" />
        </mxCell>
        <mxCell id="7c3789c024ecab99-18" style="edgeStyle=orthogonalEdgeStyle;html=1;labelBackgroundColor=none;endArrow=none;endFill=0;strokeWidth=2;fontFamily=Verdana;fontSize=15;fontColor=#036897;" parent="1" target="7c3789c024ecab99-10" edge="1">
          <mxGeometry relative="1" as="geometry">
            <mxPoint x="1110" y="310" as="targetPoint" />
            <Array as="points">
              <mxPoint x="1370" y="192" />
            </Array>
            <mxPoint x="770" y="192" as="sourcePoint" />
          </mxGeometry>
        </mxCell>
        <mxCell id="7c3789c024ecab99-52" style="edgeStyle=none;html=1;labelBackgroundColor=none;endArrow=none;endFill=0;strokeWidth=2;fontFamily=Verdana;fontSize=15;fontColor=#036897;" parent="1" source="7c3789c024ecab99-10" target="7c3789c024ecab99-8" edge="1">
          <mxGeometry relative="1" as="geometry">
            <mxPoint x="1549.9999999999995" y="917" as="targetPoint" />
          </mxGeometry>
        </mxCell>
        <mxCell id="7c3789c024ecab99-10" value="" style="fontColor=#0066CC;verticalAlign=top;verticalLabelPosition=bottom;labelPosition=center;align=center;html=1;fillColor=#CCCCCC;strokeColor=#6881B3;gradientColor=none;gradientDirection=north;strokeWidth=2;shape=mxgraph.networks.router;rounded=0;shadow=0;comic=0;" parent="1" vertex="1">
          <mxGeometry x="1300" y="882" width="100" height="30" as="geometry" />
        </mxCell>
        <mxCell id="7c3789c024ecab99-13" style="edgeStyle=none;html=1;labelBackgroundColor=none;endArrow=none;endFill=0;strokeWidth=2;fontFamily=Verdana;fontSize=15;fontColor=#036897;" parent="1" source="oj0V7E_Q8fi1NZaQkgy_-4" edge="1">
          <mxGeometry relative="1" as="geometry">
            <mxPoint x="670" y="179.39814814814804" as="targetPoint" />
            <mxPoint x="230.00000000000045" y="328.10185185185196" as="sourcePoint" />
          </mxGeometry>
        </mxCell>
        <mxCell id="7c3789c024ecab99-15" style="edgeStyle=none;html=1;labelBackgroundColor=none;endArrow=none;endFill=0;strokeWidth=2;fontFamily=Verdana;fontSize=15;fontColor=#036897;" parent="1" edge="1">
          <mxGeometry relative="1" as="geometry">
            <mxPoint x="570.0049315068499" y="343" as="sourcePoint" />
            <mxPoint x="662.059726027397" y="238" as="targetPoint" />
          </mxGeometry>
        </mxCell>
        <mxCell id="7c3789c024ecab99-17" style="edgeStyle=none;html=1;labelBackgroundColor=none;endArrow=none;endFill=0;strokeWidth=2;fontFamily=Verdana;fontSize=15;fontColor=#036897;exitX=0.345;exitY=-0.016;exitDx=0;exitDy=0;exitPerimeter=0;" parent="1" source="oj0V7E_Q8fi1NZaQkgy_-6" edge="1">
          <mxGeometry relative="1" as="geometry">
            <mxPoint x="792.6027397260273" y="295" as="sourcePoint" />
            <mxPoint x="743.2876712328766" y="205" as="targetPoint" />
          </mxGeometry>
        </mxCell>
        <mxCell id="7c3789c024ecab99-51" style="edgeStyle=orthogonalEdgeStyle;html=1;labelBackgroundColor=none;endArrow=none;endFill=0;strokeWidth=2;fontFamily=Verdana;fontSize=15;fontColor=#036897;" parent="1" target="7c3789c024ecab99-53" edge="1">
          <mxGeometry relative="1" as="geometry">
            <mxPoint x="3355.142857142858" y="1062.0000000000005" as="targetPoint" />
            <Array as="points">
              <mxPoint x="2170" y="242" />
              <mxPoint x="2170" y="759" />
            </Array>
            <mxPoint x="2845" y="242" as="sourcePoint" />
          </mxGeometry>
        </mxCell>
        <mxCell id="7c3789c024ecab99-33" style="edgeStyle=none;html=1;labelBackgroundColor=none;endArrow=none;endFill=0;strokeWidth=2;fontFamily=Verdana;fontSize=15;fontColor=#036897;" parent="1" edge="1">
          <mxGeometry relative="1" as="geometry">
            <mxPoint x="2845" y="258.8099128540307" as="targetPoint" />
            <mxPoint x="2405" y="407.5136165577346" as="sourcePoint" />
          </mxGeometry>
        </mxCell>
        <mxCell id="7c3789c024ecab99-36" style="edgeStyle=none;html=1;labelBackgroundColor=none;endArrow=none;endFill=0;strokeWidth=2;fontFamily=Verdana;fontSize=15;fontColor=#036897;" parent="1" edge="1">
          <mxGeometry relative="1" as="geometry">
            <mxPoint x="2665" y="391.82247899159665" as="sourcePoint" />
            <mxPoint x="2845" y="274.5010504201682" as="targetPoint" />
          </mxGeometry>
        </mxCell>
        <mxCell id="7c3789c024ecab99-42" style="edgeStyle=none;html=1;labelBackgroundColor=none;endArrow=none;endFill=0;strokeWidth=2;fontFamily=Verdana;fontSize=15;fontColor=#036897;" parent="1" edge="1">
          <mxGeometry relative="1" as="geometry">
            <mxPoint x="2967.6027397260277" y="374.41176470588243" as="sourcePoint" />
            <mxPoint x="2918.287671232877" y="284.41176470588243" as="targetPoint" />
          </mxGeometry>
        </mxCell>
        <mxCell id="7c3789c024ecab99-53" value="Internet" style="html=1;fillColor=#CCCCCC;strokeColor=#6881B3;gradientColor=none;gradientDirection=north;strokeWidth=2;shape=mxgraph.networks.cloud;fontColor=#6881B3;rounded=0;shadow=0;comic=0;align=center;fontSize=28;" parent="1" vertex="1">
          <mxGeometry x="1760" y="689" width="330" height="140" as="geometry" />
        </mxCell>
        <mxCell id="7c3789c024ecab99-56" style="edgeStyle=none;html=1;labelBackgroundColor=none;endArrow=none;endFill=0;strokeWidth=2;fontFamily=Verdana;fontSize=28;fontColor=#6881B3;" parent="1" source="7c3789c024ecab99-54" target="7c3789c024ecab99-53" edge="1">
          <mxGeometry relative="1" as="geometry" />
        </mxCell>
        <mxCell id="7c3789c024ecab99-54" value="" style="fontColor=#0066CC;verticalAlign=top;verticalLabelPosition=bottom;labelPosition=center;align=center;html=1;fillColor=#CCCCCC;strokeColor=#6881B3;gradientColor=none;gradientDirection=north;strokeWidth=2;shape=mxgraph.networks.router;rounded=0;shadow=0;comic=0;" parent="1" vertex="1">
          <mxGeometry x="1640" y="882" width="100" height="30" as="geometry" />
        </mxCell>
        <mxCell id="oj0V7E_Q8fi1NZaQkgy_-2" value="" style="shape=image;html=1;verticalAlign=top;verticalLabelPosition=bottom;labelBackgroundColor=#ffffff;imageAspect=0;aspect=fixed;image=https://cdn3.iconfinder.com/data/icons/strokeline/128/09_icons-128.png" vertex="1" parent="1">
          <mxGeometry x="641" y="110" width="128" height="128" as="geometry" />
        </mxCell>
        <mxCell id="oj0V7E_Q8fi1NZaQkgy_-4" value="" style="verticalLabelPosition=bottom;html=1;verticalAlign=top;align=center;strokeColor=none;fillColor=#00BEF2;shape=mxgraph.azure.enterprise;pointerEvents=1;" vertex="1" parent="1">
          <mxGeometry x="150" y="270" width="200" height="190" as="geometry" />
        </mxCell>
        <mxCell id="oj0V7E_Q8fi1NZaQkgy_-5" value="" style="verticalLabelPosition=bottom;html=1;verticalAlign=top;align=center;strokeColor=none;fillColor=#00BEF2;shape=mxgraph.azure.enterprise;pointerEvents=1;" vertex="1" parent="1">
          <mxGeometry x="441" y="350" width="200" height="190" as="geometry" />
        </mxCell>
        <mxCell id="oj0V7E_Q8fi1NZaQkgy_-6" value="" style="verticalLabelPosition=bottom;html=1;verticalAlign=top;align=center;strokeColor=none;fillColor=#00BEF2;shape=mxgraph.azure.enterprise;pointerEvents=1;" vertex="1" parent="1">
          <mxGeometry x="740" y="330" width="200" height="190" as="geometry" />
        </mxCell>
        <mxCell id="oj0V7E_Q8fi1NZaQkgy_-7" value="" style="shape=image;verticalLabelPosition=bottom;verticalAlign=top;imageAspect=0;aspect=fixed;image=data:image/jpeg,/9j/4AAQSkZJRgABAQAAAQABAAD/2wCEAAoHCBUVFRgVFhYZGRgYGBoZGhwaGBwaGhoZHBgcGhgcGRwcIS4nIR4rIRgZJjgmKy8xNTU1HCQ7QDs0Py40NTEBDAwMEA8QHhISGjQrJCs0NDQ0NDQ0NDQ0NDQ0NDQ0NDQ0NDQ0NDE0NDQ0NDQ0NDQ0NDQ0NDQ0NDQ0NDQ0NDQ0NP/AABEIAMMBAwMBIgACEQEDEQH/xAAbAAABBQEBAAAAAAAAAAAAAAAAAQIDBAUGB//EAD0QAAEDAQUFBgMGBgIDAQAAAAEAAhEhAzFBUWEEEnGBkQWhscHR8CIy4QYTQlJi8RRygpLC4qKyFiNjFf/EABkBAAMBAQEAAAAAAAAAAAAAAAABAgMEBf/EACMRAQADAAMAAgMAAwEAAAAAAAABAhEDITESYRNBUTJScQT/2gAMAwEAAhEDEQA/APSUIQvEeiEIQgBCEhQAklIUSgnLfaGzi2J/M1p/x/xWWt37T2dWO0cOkEeJWEt6+In0IQhUQQhCAEIQgBCEIAQhCAEIUllZlxgIiNIlmwkwFfYwMGqe1gYMz77lCTK6qcfx7n1ha2+AuSgIDUlvbtY3edwAxJwAWkySPa9qbZt3jUmjW4uPpqsNtu8uLnGSb8BGAGgU20Mc877oJwh1AMhPsqP7gjTmsLW+TalfimFoCMZ40Tmsn8XvqoAxOYSpaLY2YEKN9nGneOqex5Tg9ARwc/D1QnOIOPc1Celj0JCELgahCEIBCmkpSUwlAKSklBKJTDK+0TJswfyvHQgj0XMrr+1Wb1i8aT0IPkuQWtPGdvQhCFZBCEIAQhCAEIQgBCFJY2RcYCIjSmcFjZFxgLSa0MECp99yVjAwQKk++ijcuqnH8e59YWtv/DCZvQGpwah7w1pc4wB76rVJttatY0udcOpOQ1WJbPNo7edyESAMhXqceCt2rt87zjEfKJoOd0pDYHKfeJHnC57W3qG1K53KuLPKOV3Q+qkayKlkjME+BT/uuPiOoT2tyKjWqNr2DMcQkc9huMHUQO5WozAPJI6xZw8EaFVtnkOYqO5KWYj36JwswKiRw88E+z2pho41zLeBvFcRgmFeTl4oV7cYfyf3N9UI0O5QklISuFoUlNJSEpCUAEpJSEpspkdKSUkpExotG7zS3MEdRC4ldsuP2xm694yc7pNFdEWQoQhaEEIQgBCEIAQhTbNs5eYHPROI3qCmcJs9gXmB+3FaoY1g3Reb/U+icS2zbutv91PoqoOJXVTj+Pc+ue1tPShqVqV7gASSABUk3ALQjHkNBJMAXlYe1bUXumoaPlafE6+HVSbXtTnupRouFxJ/MfIKMA4k86joarC9t6htSudyYx/sKxZ2hGoyu6ZI3Wx8o/pMHoUzdy/5UPW5ZtVhlsJ+KmuP9wv5qxuNNQQecHqPRUfu3DA+9UrD7uQS4RH1p3iiHtBFR6e+aiD9T74fVPNoNRr6keYSMx+zginj7nkCqztjg0Jv3iM6R8WMRor7XDHqKGNMCNaJXTgQRkRA5TTmnoZDtntMAyMKuQtiHfk7/qhP5FjriUFyZKaXLiaHlyaSmlyaSmDyUkpkpJTI+USmSiUA+VzPbLItXagHujyXRysTt9nxsdm0joZ/yVU9K3jJQhC0SEIQgBCFZ2TZS86YlOImZyCmcN2bZi8wOZyWq5zbNu62/wB1Pole9tmN1t/hqdVRJxXXTjisfbntb5HEynhqawKZpAVkQ0EmkVPBcr2z2n96dwUY04yN8jE5DIHjlGztVr958Ijc/wC2p0/dVH7Aw0gjLHuKxtyRuQ1rT9yxrO1e35SYyNR9Ffs9uAjeaRqKjoh/ZTgZaZ4e7+qgtbJzaObhwOpop6lfcLrNqa67HOh7lIGkVE8vosoMBpjdkR6qT717YxGE+R9ClNT1pMtXioJ6zPVSfxU0cwE5j4ffHuVBm2DElvGHN8iO9WmWzX4B3A16GqWDUv3jDc7k6nQ+sJj2YlsjQjxuTHWYNxrkUlk97KGROPu9GDUli9gEBzmcbjyPwlSOe5sTdm0SOYvHIqMOGI5489OKRsAfCYxpd0iO4cUGt/fA68HNI5ShUd05M6ehQkb0e32J7bqjT0VMhdGorbZ2vvHO4q7/APlie6yxrzT+3PEolaNv2cfwmdDQ+iz7SzLTBBB1XLbjtX2Gtbxbw2USkKbKhZ8olMlJKAklZfbrZY05OjqPotGVT7VbNk7SD0I8k49KfHPIQhapCEK9sGxl50F5TiJmcgpnDdi2QvOmJWjbWoYNxt/hqdU/abYWY3GX/wDX6rNK6+Pjisfbntb5AlK1IElratYC5xDQLySABxJWqUhdCoba8vG6N4MN5bef9fHhfz/bH2tsm/Cw7+ZFGnQE4ahY9p9tLU/IwDjvO6EkLO0WnqF1msdy66y2NlwMnW/oVcZZFtxI7x0K88tPtRtLsGjg1v1TrL7VbW38QPFrT6LP8c/1p+Sr0Ju0E3tE4FpieR9U97gRDmyMnCOk0ngVwln9srUVexjv6XAnnLh3LT2f7ZWbr2OZ/KRaM7oPcpnjtH6OL1n9tjatlYRducvcqhZWbr298TpI/dOZt7LarHCP0Ogg/qb6wrTX4OAPLdPvhKXcen1Kqa3iCmOs8ajgLvNX5FxGGIw9Ex2yg1aT1kH090RoxVZtD23/ABDWo6ioU9jtrTQyz/k31HemusnC/O8VTS1rsATlcZ9dIT6C81m8JAB/lM+FQodwgzJPj74qqwEH4TB4+YTnbW+Rvje1xPMJYerm+1Ch/jWZO6hCMPXscpEIJXa4xKR7A4QQCNUEoBS9Cjb9mNPymNDUeqzdo2VzLxTO8dV0MppcsLcFbedNK8tocuU2V0FvsLHXDdOY9Fm7R2c9tQN4aX9Fy24LV+21eSsqMpu0N3mOGbSO5K5qTeWWLcwhOtGw4jIkdCrfZ+wm0dk0XnyGq1rWbTkJmcGwbEbQ5NF58hqtXabcWY3GX/8AX/ZO2naBZjcZQihP5f8AZZi7KccVj7c9rTYJsJQFl/aLtUbNZF4jfd8LB+rM6C/pmtEIu3e37PZ2kSHWkAhk5kAFxwvmLyvOO0e1LbaHbz3mMMGj+Vtw4mqrWz3PeXOJNZcTe519VMxiUzhxBlns4FbzmalWG2Sls7NX2WLWtL3mGhRMnig3Z047KckWnbcUYxoGbqnoPUpbHty0mrGOGQaQfE+CeSNhE/ZyoH2Gi3LDtHZ30eDZu/V8v93qApNp7NpvNIINxBkI2YHUuYO+0y0zGsHkVsdnfaJ4O68nnfzEQQq1tYQqNvYz5HEInJ9ONjx32zdohwFQQcqc4NPBaVjbNNxr0PR1/IrzTs7b3Mduk/XUarp9m2okUcK10PVZWpjWttdW+4m8Y4EcQa+Kq2gIEth7cnCaaHyVTZNteIEU6jorFm8F80E3gGmuijMWVr2OuMHXDmT9NClfZuAoN7Sk9IqOQ4J1vZN3qY50PJILN7asdIFYI6/umFbeGTOYIPOqFN/FnFxGkkQhHYerWXaTTR43Dr8p54c4VuViS03HlFOl/TqomOcyrDu8DvMN+HpXVaV5v9mduH+N4poKzrLtZtzxu/qFW88W86aq+xwIkEEG4gyDzWtbRbxlas19P3k0lCWFSSI+8RKQoBttYMf8wrnceqzdo7KIqw72hofQrSckD1nbjrb2FRe1fHGjsl77ZwILWgguJEXgGBqr22bS2zH3dnSKEjD/AGV3tvbSyGt+ZwmchdTVc6ilIrHQtabBACWEsK0kXnf272ku2gMwYwU1d8R7t3ou82naI+EfMf8AiM15p9o2/wDveb6xOcCD4JRaNxU1nNZFgKDr1VtgVWzVljqSpsIWrN4b8TjQLO2/bXWhyaPlHmdVFtFuXcPdVGWiBBrJkRdl59E61wTJbOJrcrthaAGRfM5JWdjW5/BFJgkAxwWe4EGDIIoQaEHGVSWxb2rHN+JoxrjXX3eqOybe+ydLDSatPyu466qqbQxCLKzc9wa0ST7k6JyHT7TuvaHtucARzWVbtWgSGMawGQ0ATnmVn2zllHq5Z+0MxF4qFrdj7TIjAiRWOIWZaKfssQRo4qs2BE5LrNmN1RzoeRFCrLzWd2eJM8iPNUdntRMXG489citNjcLjwifLuXPPToidS2e07wgtMa19DziVM3aMHbwyNY+hVUMrrrT6KK2Dz6juQbVFsMx/cPVCxaZnp9EIyCeoWjW4yJ1pyw8ENtHi47wxumMiD5qw+xj5XUOBu6qsZBy4kkd9eYUao02jHfhg6U941Ca0PZLrN0ZgXE/qaR4gHVI62/OBff6OlKBFbxliBoZ4XEIiZjwT9r2z9s13bRsH8zajm28cpWtZ2rXt3muDgcQZC5u0e11LsDeD7nPqqrWvY4OY4gmK1DiNRc4cZW1eWY9ZW4onx1xQsPZe3CKWrf6mDxaa9Oi2tnt2PEscHDQzGhyK2reLeMbUmvpHBRlTuaoHppYX2hbVh0cPD1KyAFv9us+BpydHUH0Cw4QCKnt+17ggQXkUGWp08U7b9rFm26XH5W+ZyCxNlf8AGX2rjUSTE8KYBRa2dNK0meztne8E70mTJnElcV2kZtXg4vfy+Ir0ez7RsWiGsc92G8QxvdvT1C8++0bSbd74ALjvw0EN+K+ASTfOKiv+S77jIcyDBVjZn7tSAZBEETf5+qksmNtBukw7A56KB7XMO68Rr7vC2jPWMpH7NZvu+A9W/RV7bYLRkO3ZAIhzajT2VZsHsB+MEj9JHs9Qr7GvY3fsX7zQfiGAESS5pqB7lNKT/wAnAABa/fHztIbuzoSZ7hzWDtNuLV73vIZvAuAAJEgANaIzzu4LombVs1sA22YGG4OAJaOEEObwBAzlR7V9jnlu/YObaMv+YdzhA/uDRqUYHLQtbYrMMH6jechkFVstnLHHeEOBIjIih5qdz1Fp3qFxCa1tZVR7kOtFC96mIEyQmqt7CyoGN3W/zVRjcSrfZtnvPF+JvrQX9VfkCO5bVlZbsiHEuzHot/s5pc0BwII68QsLZLR4dDiYwND1F66bZnuABc2Rm2vUXjmue0y6KwssYCIfT9Xrl4KC32XdwMYEFW2WoN316Jd2PlMaYdPRQtR/hp/EO9Cvbv6G9fohGh25KitGypXPijqd3T0TC72FJqb2Yjocet/NVw6MwcjdPlx0Vx7h7v6qNzAaFAVzaCPjHAk1nQj3qmuebwZGOY1IpP1RbWLgPgMjI+pVdrTTdO678uun75pjD7V+9UxIz9z1lRtBDt9hLHZtMOMcL+HcgWo3viEOzx45G8nDmkexwBIhzbjAg8CD9L0/A09l7feKWjd4fmYIcP5mY8o4LY2ba2Woljw7OLxxF45rlS8Ovr4jz8VXfYgODmuIcLj8pH8rga35wta8sx6ytxRPjrO2rP8A9TtC0/8AIeRK5XabcMEnkMz6Kz/+7aBj7O0AfLSA75XilJEQ7DLmsoODjvEkOunADKFVuSM6Z14p3tELLeO+X/EfDCBNAorfZbzEjAg3c1beykxIOLadRcUxrBPwOM5Ch6GhWG/t0/TKfszhQVxynl6LG7Z2ffaHD5mzxjEarq3tBob+EH+0+RCr2mzg3t3oxqHDiL062mJ1NqxMY84eyK+wruzbe0jctm77c/xD31W92v2G1437H5vxMmp1GTtLj48raWUHIjA56hdFbRPcOa1ZjqXQ2H2UZtA39mf95AMs32tfdQSRArF4FFh7XsNrs/w21m9hulzaHGAbnciblFY27rNwe1zmOBoWkg9QV0+yfbfaWjceWWrMniHRxx5yr1OOXDhmPDxU2x9pWti7esXuYReWkV5XFam2dqbJaTvbMGOx+7IAnP4d3wWVanZz8pcOvojRiq55mTecSZJOpTS4qR5Zg4++SYbVmpU5B6j3SUUGpTXW2QTAZT6gYfvElaGxNk0EgQOfvKqz2NNwXV9hdl03jTjQ10/fgotZdYXtgsLhp8rxPcagLVsSWXTAyMj1HMJ9nYw2CBHIj+00H/Epjt6aRwkium8f8uSxbQla9j9HcYPX1UpJbjvDWAe+hCquMUe0jlP150T7PIGmhBHQ48ylMGs/eDM8wQkVb7sfpHUISwa9C+/JG68AjrGuvcqzpbWS5uYw0IPhQqYH3imi+W04efqlCsRvEgGQZmCPTNVDanASOscxcpbazdJioJkgUr+ZsXOUTGb4kuE5ubeBiHNIPEeSMCP+IB0UFs8xgRr5IJmYIIBi+nXd81WtCRddncngBdOG8MpqOfqkbaQZbJjA0cOGnUaKs95ma6fuEp+OBEnCKGl9fFPCWPvA6hEHoRXECnTmFIWkCSd4aVIwrSDl7lFpsZ3RDt+lQYn+k+qqte4ExheKg3QPZ5JA97WkUNBe0zE8LxljEKq9g/DTIVzwOqkc5r8YdS6WnphykZpH7wNfiGBAAmmPqgG77heCPeGYUu+HCoB1u7/2TAAQRhlf+3lfeoPuze01w1pSHeommCAsBmAM6OHgfMKN7Ixj+areThco3W2784jGlb8YuKey2m4yNK9QahAMtx+YcCDXk7yK5/tPsnfcXA/Ec6OPk5dGW4tMZiJHqOdExzBcQG9C08E4mY8KYifXB23Zlo0kbpMXwKjl6Ss51iJugj3cvR3sincatPA3hQ7Rs1m/52DTeEjk9aRy/wBhnPF/JedvZKhdZld7afZywddvMJu+KQeBMhU7b7JRc93QHqB9eCr8lUTx2cWbMpPuius/8YH56cO7jpfoFZZ9lWTV5Ohp0Ix0T/JWB8LOLFkrGz7G95hrSeAXfbL2Ds7fwydTVaVnszW/IA3MRTmPUc1E8v8AIXHF/Zcv2T9nYh7z5tnJ0XHiF0rWblCymBbSRpHw/wDVSOaLyIOYmo4i7vCczeApUZtieY+V3KCs5nWkRiAun5HCcjQxpjzqonuINRB4U+nNWnsY8VbJx3bxxaa+KrOODHzofCHU6EIgGM2iKfUHgL+YTi8OrAOZBIPMiscQVBbWb5q0dd09/hvKJ4e3AkcJjg5s+KZat7+T3f3N+iFT/iDrzIQjBr0cPy6Y9PToh1pnTW6vHNVtn2pj6A8jQj1HBSOd794KMaaka8+7/Z6lMfjB9jxjuScDy9+SYXE4e+dDzuyTJE8uaZA6Y8RiO/VU9pfBJ3jUXF5hpuBBBqwnorj3+6+F/nwUFtZB1cqyDTKuEYVpxQGOA95DW1cWzEm8UIgnMGsxRaOzWQYIBkn5nRecmzhPrwjbus3paWk03rxE0AN4HHql3yfmrPXr0TmSSl9ZA6eYzQ9+983UZcfYVZ9nWG/2kxP8hPglZaG6rc+PgUYBbbNvVbXQxP1VMucw1nU+78q1pgru/gcMrumCUvDhDhOR7jBSNSNs114m/wCWQ4d+HQJrgQKDeBrvA1rmNc07aNi/L0k8cLsLlEx7m0ND36nI+Nb0Ec9wLYgOAvBHKa3HyVUWO6fgcL6A0H9LhjxVxwDx1ktkEQfy+xqVA+zoa7wzGU1pjlKcAhtnN+dp0Nx4g+fgpbO0B+UyD7IIuPedVFv0MQRNxE9cQon2ANQd10TBNMqG/gmFzdwjleOQv6SogxzZLXSPeN3WFENsLPheJyxHIqyy0a6rTXObufvglgRMbMlvwHEfhPEFFltABhwjru/TwUr2DEGRlQ8hj3FQusN6oIMZCvNvkkFlzGuqPen0uUTmEYUjiOeXhonNe0UI3cJF0+Sm3orhfSohLsKhGffX9uccFJzjvHU3cSnMtrN5iRyoeWfJPdYltQN4T+G8cW+iY00PIvF+IqDz9UQ03GDpjxCGnLnx4fukcAbwCMx7NepQZHx+Jsx+IUI5i5RWjAa0cP1X9RfzUzW5Hrh6eKjfTCM4u568VSZhA8tA/E3hDmnyVZ7mmmd8GOoNFdDQ7Q9PfOUx2zux3DxETzFPBAxR+4Zm/p/qhW/4b/5jkShGljXABM99xBVux28ijxTOk9buveqYtBiK9/1SF2ZEG44HT6JzAbQtGvHww4DkfpwSF5GZjqPf7BYzQWnebQ1xiRkPQqxYdoA0fQjl4ftopmFRLQJms8vGnvVRPJvB74/f3CUEGorSjm36aOHuEjic54X8P37kjRuOfhTph3ayoHWA/D0wrlGNTlMqySOndxxjqFE9hw9Z6X8r0BTe1wpeDg66uR98ErrYGjuAmh4Tjfce5Tzn1v8AYw7hCitbHIjyjld3jAIJG9jrwSR0cBrmISSb8/fPxStcKC45eh9E4un3XnmgBlscaYe8kpDXXifHpimF2PeFXD60EcBTWnvmgJHbLFRMC6DUUpHvFV3Oitc5pPOleJrqrTLSDlPTqnENcIIg6XjWPRAUWvDhIF2OIwNLwL7zH6ionyAZh3CAYPvLhKtP2cj4hyLaV4DH1wUQk4VwjPqOojUqgia6RhwPgaToo926DGQw/pIrE9VNasaRJF2IuHE/h5gc1DaWbhiSLxF9fpzS0JBtTm/C9sjDzjAjopxaNdVprqYcOfrIWf8AxAFDdjiFPaMa6CDEdBwPFMLn3mDhzud6Hh3JA0irTOcAyOLf34Km+1eyjhQ5nnQingrFjbA3U0NemPRLAHsaauAI/MKd4oeBhPs2OFGuurFx/tNOdE5r8+ufBww4gjVI5gMAcgaH+msHi0hMJBtNYeJFagEOGe830lP3A4bzXSM5w4qB8XOF2DppqHXt5jmoGtgywnexaTDuRxUhbLSL/fSPJLPPjfyI9BxUD9rIiQDgQRBByJF3RIzamuwI0vHd6J4WpH2QwpoafQoD3Np3H34KZjgRBrPuNeSCzKo6/XpRGmg3m/ljmUqk3Pe8EqQQWF3P/JXNnqADWb9aj1QhWk3AjTyUbxLZxAnxSoQcndmPO+0TQmCMFrvunGgQhTPpx4itLpxpXqkGGt+tShCRoh8x4x3FKz33+iVCAr7SwEGmqZYY6FCEQUo7T5jzHeFG+8HghCAf+EpGC8ZGmiEICzY1A4qHaWCtMfJCEBQe8iovMiccQoX/ACtNxLiKUEcBRCFRSg2gSwnEAd6Wwy0B8EIQa0bo4+qr7TZgRAwnmhCUFKXYLU/EJmM646qzaUeG4G8GoPVCET6FnZ6ue01DYibxTO9VnsGX4yOXrrehCQRmrJNSHROk3J1jZNcDImKIQqCRli0EwMMyn2TyXXoQpEJp4dAhCEKf/9k=" vertex="1" parent="1">
          <mxGeometry x="250" y="600" width="259" height="195" as="geometry" />
        </mxCell>
        <mxCell id="oj0V7E_Q8fi1NZaQkgy_-8" value="" style="shape=image;verticalLabelPosition=bottom;verticalAlign=top;imageAspect=0;aspect=fixed;image=data:image/jpeg,/9j/4AAQSkZJRgABAQAAAQABAAD/2wCEAAoHCBUVFRgVFhYZGRgYGBoZGhwaGBwaGhoZHBgcGhgcGRwcIS4nIR4rIRgZJjgmKy8xNTU1HCQ7QDs0Py40NTEBDAwMEA8QHhISGjQrJCs0NDQ0NDQ0NDQ0NDQ0NDQ0NDQ0NDQ0NDE0NDQ0NDQ0NDQ0NDQ0NDQ0NDQ0NDQ0NDQ0NP/AABEIAMMBAwMBIgACEQEDEQH/xAAbAAABBQEBAAAAAAAAAAAAAAAAAQIDBAUGB//EAD0QAAEDAQUFBgMGBgIDAQAAAAEAAhEhAzFBUWEEEnGBkQWhscHR8CIy4QYTQlJi8RRygpLC4qKyFiNjFf/EABkBAAMBAQEAAAAAAAAAAAAAAAABAgMEBf/EACMRAQADAAMAAgMAAwEAAAAAAAABAhEDITESYRNBUTJScQT/2gAMAwEAAhEDEQA/APSUIQvEeiEIQgBCEhQAklIUSgnLfaGzi2J/M1p/x/xWWt37T2dWO0cOkEeJWEt6+In0IQhUQQhCAEIQgBCEIAQhCAEIUllZlxgIiNIlmwkwFfYwMGqe1gYMz77lCTK6qcfx7n1ha2+AuSgIDUlvbtY3edwAxJwAWkySPa9qbZt3jUmjW4uPpqsNtu8uLnGSb8BGAGgU20Mc877oJwh1AMhPsqP7gjTmsLW+TalfimFoCMZ40Tmsn8XvqoAxOYSpaLY2YEKN9nGneOqex5Tg9ARwc/D1QnOIOPc1Celj0JCELgahCEIBCmkpSUwlAKSklBKJTDK+0TJswfyvHQgj0XMrr+1Wb1i8aT0IPkuQWtPGdvQhCFZBCEIAQhCAEIQgBCFJY2RcYCIjSmcFjZFxgLSa0MECp99yVjAwQKk++ijcuqnH8e59YWtv/DCZvQGpwah7w1pc4wB76rVJttatY0udcOpOQ1WJbPNo7edyESAMhXqceCt2rt87zjEfKJoOd0pDYHKfeJHnC57W3qG1K53KuLPKOV3Q+qkayKlkjME+BT/uuPiOoT2tyKjWqNr2DMcQkc9huMHUQO5WozAPJI6xZw8EaFVtnkOYqO5KWYj36JwswKiRw88E+z2pho41zLeBvFcRgmFeTl4oV7cYfyf3N9UI0O5QklISuFoUlNJSEpCUAEpJSEpspkdKSUkpExotG7zS3MEdRC4ldsuP2xm694yc7pNFdEWQoQhaEEIQgBCEIAQhTbNs5eYHPROI3qCmcJs9gXmB+3FaoY1g3Reb/U+icS2zbutv91PoqoOJXVTj+Pc+ue1tPShqVqV7gASSABUk3ALQjHkNBJMAXlYe1bUXumoaPlafE6+HVSbXtTnupRouFxJ/MfIKMA4k86joarC9t6htSudyYx/sKxZ2hGoyu6ZI3Wx8o/pMHoUzdy/5UPW5ZtVhlsJ+KmuP9wv5qxuNNQQecHqPRUfu3DA+9UrD7uQS4RH1p3iiHtBFR6e+aiD9T74fVPNoNRr6keYSMx+zginj7nkCqztjg0Jv3iM6R8WMRor7XDHqKGNMCNaJXTgQRkRA5TTmnoZDtntMAyMKuQtiHfk7/qhP5FjriUFyZKaXLiaHlyaSmlyaSmDyUkpkpJTI+USmSiUA+VzPbLItXagHujyXRysTt9nxsdm0joZ/yVU9K3jJQhC0SEIQgBCFZ2TZS86YlOImZyCmcN2bZi8wOZyWq5zbNu62/wB1Pole9tmN1t/hqdVRJxXXTjisfbntb5HEynhqawKZpAVkQ0EmkVPBcr2z2n96dwUY04yN8jE5DIHjlGztVr958Ijc/wC2p0/dVH7Aw0gjLHuKxtyRuQ1rT9yxrO1e35SYyNR9Ffs9uAjeaRqKjoh/ZTgZaZ4e7+qgtbJzaObhwOpop6lfcLrNqa67HOh7lIGkVE8vosoMBpjdkR6qT717YxGE+R9ClNT1pMtXioJ6zPVSfxU0cwE5j4ffHuVBm2DElvGHN8iO9WmWzX4B3A16GqWDUv3jDc7k6nQ+sJj2YlsjQjxuTHWYNxrkUlk97KGROPu9GDUli9gEBzmcbjyPwlSOe5sTdm0SOYvHIqMOGI5489OKRsAfCYxpd0iO4cUGt/fA68HNI5ShUd05M6ehQkb0e32J7bqjT0VMhdGorbZ2vvHO4q7/APlie6yxrzT+3PEolaNv2cfwmdDQ+iz7SzLTBBB1XLbjtX2Gtbxbw2USkKbKhZ8olMlJKAklZfbrZY05OjqPotGVT7VbNk7SD0I8k49KfHPIQhapCEK9sGxl50F5TiJmcgpnDdi2QvOmJWjbWoYNxt/hqdU/abYWY3GX/wDX6rNK6+Pjisfbntb5AlK1IElratYC5xDQLySABxJWqUhdCoba8vG6N4MN5bef9fHhfz/bH2tsm/Cw7+ZFGnQE4ahY9p9tLU/IwDjvO6EkLO0WnqF1msdy66y2NlwMnW/oVcZZFtxI7x0K88tPtRtLsGjg1v1TrL7VbW38QPFrT6LP8c/1p+Sr0Ju0E3tE4FpieR9U97gRDmyMnCOk0ngVwln9srUVexjv6XAnnLh3LT2f7ZWbr2OZ/KRaM7oPcpnjtH6OL1n9tjatlYRducvcqhZWbr298TpI/dOZt7LarHCP0Ogg/qb6wrTX4OAPLdPvhKXcen1Kqa3iCmOs8ajgLvNX5FxGGIw9Ex2yg1aT1kH090RoxVZtD23/ABDWo6ioU9jtrTQyz/k31HemusnC/O8VTS1rsATlcZ9dIT6C81m8JAB/lM+FQodwgzJPj74qqwEH4TB4+YTnbW+Rvje1xPMJYerm+1Ch/jWZO6hCMPXscpEIJXa4xKR7A4QQCNUEoBS9Cjb9mNPymNDUeqzdo2VzLxTO8dV0MppcsLcFbedNK8tocuU2V0FvsLHXDdOY9Fm7R2c9tQN4aX9Fy24LV+21eSsqMpu0N3mOGbSO5K5qTeWWLcwhOtGw4jIkdCrfZ+wm0dk0XnyGq1rWbTkJmcGwbEbQ5NF58hqtXabcWY3GX/8AX/ZO2naBZjcZQihP5f8AZZi7KccVj7c9rTYJsJQFl/aLtUbNZF4jfd8LB+rM6C/pmtEIu3e37PZ2kSHWkAhk5kAFxwvmLyvOO0e1LbaHbz3mMMGj+Vtw4mqrWz3PeXOJNZcTe519VMxiUzhxBlns4FbzmalWG2Sls7NX2WLWtL3mGhRMnig3Z047KckWnbcUYxoGbqnoPUpbHty0mrGOGQaQfE+CeSNhE/ZyoH2Gi3LDtHZ30eDZu/V8v93qApNp7NpvNIINxBkI2YHUuYO+0y0zGsHkVsdnfaJ4O68nnfzEQQq1tYQqNvYz5HEInJ9ONjx32zdohwFQQcqc4NPBaVjbNNxr0PR1/IrzTs7b3Mduk/XUarp9m2okUcK10PVZWpjWttdW+4m8Y4EcQa+Kq2gIEth7cnCaaHyVTZNteIEU6jorFm8F80E3gGmuijMWVr2OuMHXDmT9NClfZuAoN7Sk9IqOQ4J1vZN3qY50PJILN7asdIFYI6/umFbeGTOYIPOqFN/FnFxGkkQhHYerWXaTTR43Dr8p54c4VuViS03HlFOl/TqomOcyrDu8DvMN+HpXVaV5v9mduH+N4poKzrLtZtzxu/qFW88W86aq+xwIkEEG4gyDzWtbRbxlas19P3k0lCWFSSI+8RKQoBttYMf8wrnceqzdo7KIqw72hofQrSckD1nbjrb2FRe1fHGjsl77ZwILWgguJEXgGBqr22bS2zH3dnSKEjD/AGV3tvbSyGt+ZwmchdTVc6ilIrHQtabBACWEsK0kXnf272ku2gMwYwU1d8R7t3ou82naI+EfMf8AiM15p9o2/wDveb6xOcCD4JRaNxU1nNZFgKDr1VtgVWzVljqSpsIWrN4b8TjQLO2/bXWhyaPlHmdVFtFuXcPdVGWiBBrJkRdl59E61wTJbOJrcrthaAGRfM5JWdjW5/BFJgkAxwWe4EGDIIoQaEHGVSWxb2rHN+JoxrjXX3eqOybe+ydLDSatPyu466qqbQxCLKzc9wa0ST7k6JyHT7TuvaHtucARzWVbtWgSGMawGQ0ATnmVn2zllHq5Z+0MxF4qFrdj7TIjAiRWOIWZaKfssQRo4qs2BE5LrNmN1RzoeRFCrLzWd2eJM8iPNUdntRMXG489citNjcLjwifLuXPPToidS2e07wgtMa19DziVM3aMHbwyNY+hVUMrrrT6KK2Dz6juQbVFsMx/cPVCxaZnp9EIyCeoWjW4yJ1pyw8ENtHi47wxumMiD5qw+xj5XUOBu6qsZBy4kkd9eYUao02jHfhg6U941Ca0PZLrN0ZgXE/qaR4gHVI62/OBff6OlKBFbxliBoZ4XEIiZjwT9r2z9s13bRsH8zajm28cpWtZ2rXt3muDgcQZC5u0e11LsDeD7nPqqrWvY4OY4gmK1DiNRc4cZW1eWY9ZW4onx1xQsPZe3CKWrf6mDxaa9Oi2tnt2PEscHDQzGhyK2reLeMbUmvpHBRlTuaoHppYX2hbVh0cPD1KyAFv9us+BpydHUH0Cw4QCKnt+17ggQXkUGWp08U7b9rFm26XH5W+ZyCxNlf8AGX2rjUSTE8KYBRa2dNK0meztne8E70mTJnElcV2kZtXg4vfy+Ir0ez7RsWiGsc92G8QxvdvT1C8++0bSbd74ALjvw0EN+K+ASTfOKiv+S77jIcyDBVjZn7tSAZBEETf5+qksmNtBukw7A56KB7XMO68Rr7vC2jPWMpH7NZvu+A9W/RV7bYLRkO3ZAIhzajT2VZsHsB+MEj9JHs9Qr7GvY3fsX7zQfiGAESS5pqB7lNKT/wAnAABa/fHztIbuzoSZ7hzWDtNuLV73vIZvAuAAJEgANaIzzu4LombVs1sA22YGG4OAJaOEEObwBAzlR7V9jnlu/YObaMv+YdzhA/uDRqUYHLQtbYrMMH6jechkFVstnLHHeEOBIjIih5qdz1Fp3qFxCa1tZVR7kOtFC96mIEyQmqt7CyoGN3W/zVRjcSrfZtnvPF+JvrQX9VfkCO5bVlZbsiHEuzHot/s5pc0BwII68QsLZLR4dDiYwND1F66bZnuABc2Rm2vUXjmue0y6KwssYCIfT9Xrl4KC32XdwMYEFW2WoN316Jd2PlMaYdPRQtR/hp/EO9Cvbv6G9fohGh25KitGypXPijqd3T0TC72FJqb2Yjocet/NVw6MwcjdPlx0Vx7h7v6qNzAaFAVzaCPjHAk1nQj3qmuebwZGOY1IpP1RbWLgPgMjI+pVdrTTdO678uun75pjD7V+9UxIz9z1lRtBDt9hLHZtMOMcL+HcgWo3viEOzx45G8nDmkexwBIhzbjAg8CD9L0/A09l7feKWjd4fmYIcP5mY8o4LY2ba2Woljw7OLxxF45rlS8Ovr4jz8VXfYgODmuIcLj8pH8rga35wta8sx6ytxRPjrO2rP8A9TtC0/8AIeRK5XabcMEnkMz6Kz/+7aBj7O0AfLSA75XilJEQ7DLmsoODjvEkOunADKFVuSM6Z14p3tELLeO+X/EfDCBNAorfZbzEjAg3c1beykxIOLadRcUxrBPwOM5Ch6GhWG/t0/TKfszhQVxynl6LG7Z2ffaHD5mzxjEarq3tBob+EH+0+RCr2mzg3t3oxqHDiL062mJ1NqxMY84eyK+wruzbe0jctm77c/xD31W92v2G1437H5vxMmp1GTtLj48raWUHIjA56hdFbRPcOa1ZjqXQ2H2UZtA39mf95AMs32tfdQSRArF4FFh7XsNrs/w21m9hulzaHGAbnciblFY27rNwe1zmOBoWkg9QV0+yfbfaWjceWWrMniHRxx5yr1OOXDhmPDxU2x9pWti7esXuYReWkV5XFam2dqbJaTvbMGOx+7IAnP4d3wWVanZz8pcOvojRiq55mTecSZJOpTS4qR5Zg4++SYbVmpU5B6j3SUUGpTXW2QTAZT6gYfvElaGxNk0EgQOfvKqz2NNwXV9hdl03jTjQ10/fgotZdYXtgsLhp8rxPcagLVsSWXTAyMj1HMJ9nYw2CBHIj+00H/Epjt6aRwkium8f8uSxbQla9j9HcYPX1UpJbjvDWAe+hCquMUe0jlP150T7PIGmhBHQ48ylMGs/eDM8wQkVb7sfpHUISwa9C+/JG68AjrGuvcqzpbWS5uYw0IPhQqYH3imi+W04efqlCsRvEgGQZmCPTNVDanASOscxcpbazdJioJkgUr+ZsXOUTGb4kuE5ubeBiHNIPEeSMCP+IB0UFs8xgRr5IJmYIIBi+nXd81WtCRddncngBdOG8MpqOfqkbaQZbJjA0cOGnUaKs95ma6fuEp+OBEnCKGl9fFPCWPvA6hEHoRXECnTmFIWkCSd4aVIwrSDl7lFpsZ3RDt+lQYn+k+qqte4ExheKg3QPZ5JA97WkUNBe0zE8LxljEKq9g/DTIVzwOqkc5r8YdS6WnphykZpH7wNfiGBAAmmPqgG77heCPeGYUu+HCoB1u7/2TAAQRhlf+3lfeoPuze01w1pSHeommCAsBmAM6OHgfMKN7Ixj+areThco3W2784jGlb8YuKey2m4yNK9QahAMtx+YcCDXk7yK5/tPsnfcXA/Ec6OPk5dGW4tMZiJHqOdExzBcQG9C08E4mY8KYifXB23Zlo0kbpMXwKjl6Ss51iJugj3cvR3sincatPA3hQ7Rs1m/52DTeEjk9aRy/wBhnPF/JedvZKhdZld7afZywddvMJu+KQeBMhU7b7JRc93QHqB9eCr8lUTx2cWbMpPuius/8YH56cO7jpfoFZZ9lWTV5Ohp0Ix0T/JWB8LOLFkrGz7G95hrSeAXfbL2Ds7fwydTVaVnszW/IA3MRTmPUc1E8v8AIXHF/Zcv2T9nYh7z5tnJ0XHiF0rWblCymBbSRpHw/wDVSOaLyIOYmo4i7vCczeApUZtieY+V3KCs5nWkRiAun5HCcjQxpjzqonuINRB4U+nNWnsY8VbJx3bxxaa+KrOODHzofCHU6EIgGM2iKfUHgL+YTi8OrAOZBIPMiscQVBbWb5q0dd09/hvKJ4e3AkcJjg5s+KZat7+T3f3N+iFT/iDrzIQjBr0cPy6Y9PToh1pnTW6vHNVtn2pj6A8jQj1HBSOd794KMaaka8+7/Z6lMfjB9jxjuScDy9+SYXE4e+dDzuyTJE8uaZA6Y8RiO/VU9pfBJ3jUXF5hpuBBBqwnorj3+6+F/nwUFtZB1cqyDTKuEYVpxQGOA95DW1cWzEm8UIgnMGsxRaOzWQYIBkn5nRecmzhPrwjbus3paWk03rxE0AN4HHql3yfmrPXr0TmSSl9ZA6eYzQ9+983UZcfYVZ9nWG/2kxP8hPglZaG6rc+PgUYBbbNvVbXQxP1VMucw1nU+78q1pgru/gcMrumCUvDhDhOR7jBSNSNs114m/wCWQ4d+HQJrgQKDeBrvA1rmNc07aNi/L0k8cLsLlEx7m0ND36nI+Nb0Ec9wLYgOAvBHKa3HyVUWO6fgcL6A0H9LhjxVxwDx1ktkEQfy+xqVA+zoa7wzGU1pjlKcAhtnN+dp0Nx4g+fgpbO0B+UyD7IIuPedVFv0MQRNxE9cQon2ANQd10TBNMqG/gmFzdwjleOQv6SogxzZLXSPeN3WFENsLPheJyxHIqyy0a6rTXObufvglgRMbMlvwHEfhPEFFltABhwjru/TwUr2DEGRlQ8hj3FQusN6oIMZCvNvkkFlzGuqPen0uUTmEYUjiOeXhonNe0UI3cJF0+Sm3orhfSohLsKhGffX9uccFJzjvHU3cSnMtrN5iRyoeWfJPdYltQN4T+G8cW+iY00PIvF+IqDz9UQ03GDpjxCGnLnx4fukcAbwCMx7NepQZHx+Jsx+IUI5i5RWjAa0cP1X9RfzUzW5Hrh6eKjfTCM4u568VSZhA8tA/E3hDmnyVZ7mmmd8GOoNFdDQ7Q9PfOUx2zux3DxETzFPBAxR+4Zm/p/qhW/4b/5jkShGljXABM99xBVux28ijxTOk9buveqYtBiK9/1SF2ZEG44HT6JzAbQtGvHww4DkfpwSF5GZjqPf7BYzQWnebQ1xiRkPQqxYdoA0fQjl4ftopmFRLQJms8vGnvVRPJvB74/f3CUEGorSjm36aOHuEjic54X8P37kjRuOfhTph3ayoHWA/D0wrlGNTlMqySOndxxjqFE9hw9Z6X8r0BTe1wpeDg66uR98ErrYGjuAmh4Tjfce5Tzn1v8AYw7hCitbHIjyjld3jAIJG9jrwSR0cBrmISSb8/fPxStcKC45eh9E4un3XnmgBlscaYe8kpDXXifHpimF2PeFXD60EcBTWnvmgJHbLFRMC6DUUpHvFV3Oitc5pPOleJrqrTLSDlPTqnENcIIg6XjWPRAUWvDhIF2OIwNLwL7zH6ionyAZh3CAYPvLhKtP2cj4hyLaV4DH1wUQk4VwjPqOojUqgia6RhwPgaToo926DGQw/pIrE9VNasaRJF2IuHE/h5gc1DaWbhiSLxF9fpzS0JBtTm/C9sjDzjAjopxaNdVprqYcOfrIWf8AxAFDdjiFPaMa6CDEdBwPFMLn3mDhzud6Hh3JA0irTOcAyOLf34Km+1eyjhQ5nnQingrFjbA3U0NemPRLAHsaauAI/MKd4oeBhPs2OFGuurFx/tNOdE5r8+ufBww4gjVI5gMAcgaH+msHi0hMJBtNYeJFagEOGe830lP3A4bzXSM5w4qB8XOF2DppqHXt5jmoGtgywnexaTDuRxUhbLSL/fSPJLPPjfyI9BxUD9rIiQDgQRBByJF3RIzamuwI0vHd6J4WpH2QwpoafQoD3Np3H34KZjgRBrPuNeSCzKo6/XpRGmg3m/ljmUqk3Pe8EqQQWF3P/JXNnqADWb9aj1QhWk3AjTyUbxLZxAnxSoQcndmPO+0TQmCMFrvunGgQhTPpx4itLpxpXqkGGt+tShCRoh8x4x3FKz33+iVCAr7SwEGmqZYY6FCEQUo7T5jzHeFG+8HghCAf+EpGC8ZGmiEICzY1A4qHaWCtMfJCEBQe8iovMiccQoX/ACtNxLiKUEcBRCFRSg2gSwnEAd6Wwy0B8EIQa0bo4+qr7TZgRAwnmhCUFKXYLU/EJmM646qzaUeG4G8GoPVCET6FnZ6ue01DYibxTO9VnsGX4yOXrrehCQRmrJNSHROk3J1jZNcDImKIQqCRli0EwMMyn2TyXXoQpEJp4dAhCEKf/9k=" vertex="1" parent="1">
          <mxGeometry x="620" y="600" width="259" height="195" as="geometry" />
        </mxCell>
        <mxCell id="oj0V7E_Q8fi1NZaQkgy_-9" style="edgeStyle=none;html=1;labelBackgroundColor=none;endArrow=none;endFill=0;strokeWidth=2;fontFamily=Verdana;fontSize=15;fontColor=#036897;" edge="1" parent="1">
          <mxGeometry relative="1" as="geometry">
            <mxPoint x="333.47493150685" y="605" as="sourcePoint" />
            <mxPoint x="425.52972602739715" y="500" as="targetPoint" />
          </mxGeometry>
        </mxCell>
        <mxCell id="oj0V7E_Q8fi1NZaQkgy_-10" style="edgeStyle=none;html=1;labelBackgroundColor=none;endArrow=none;endFill=0;strokeWidth=2;fontFamily=Verdana;fontSize=15;fontColor=#036897;exitX=1;exitY=0.932;exitDx=0;exitDy=0;exitPerimeter=0;" edge="1" parent="1" source="oj0V7E_Q8fi1NZaQkgy_-5" target="oj0V7E_Q8fi1NZaQkgy_-8">
          <mxGeometry relative="1" as="geometry">
            <mxPoint x="590.00493150685" y="363" as="sourcePoint" />
            <mxPoint x="682.0597260273971" y="258" as="targetPoint" />
          </mxGeometry>
        </mxCell>
        <mxCell id="oj0V7E_Q8fi1NZaQkgy_-11" value="" style="shape=image;verticalLabelPosition=bottom;labelBackgroundColor=default;verticalAlign=top;aspect=fixed;imageAspect=0;image=data:image/jpeg,/9j/4AAQSkZJRgABAQAAAQABAAD/2wCEAAoGBxMUExYUFBQXFxYYGR8dGBgZGiMhIBkiHSAdICMgGSAcIioiHB0nIBkgIzUjJysuMTExGSE2OzYwOiowMS4BCwsLDw4PHBERHDAnIicwMDAyMDAwMDAwMjAwMDAwODgyMDAwMDAwMDAwMDAwLjExMDA1OTkwMDUwMjIwMDIwMP/AABEIAL8BCAMBIgACEQEDEQH/xAAbAAABBQEBAAAAAAAAAAAAAAAAAgMEBQYHAf/EAEIQAAEDAgMGAwMJBwQBBQAAAAECAxEAIQQSMQUGIkFRYRMycYGRsRZCUlSTocHR0gcUI2JyguEzkvDxsiRDosLi/8QAGgEBAQEBAQEBAAAAAAAAAAAAAAECAwQGBf/EACoRAQEAAgEEAQIFBQEAAAAAAAABAhEhAxIxQVFhkRMycbHxBYGh4fAE/9oADAMBAAIRAxEAPwDlfykxn1rEfbL/AFUfKTGfWsR9sv8AVVbRQWXykxn1rEfbL/VR8pMZ9axH2y/1VW0UFl8pMZ9axH2y/wBVHykxn1rEfbL/AFVW0UFl8pMZ9axH2y/1UfKTGfWsR9sv9VVtFBZfKTGfWsR9sv8AVR8pMZ9axH2y/wBVVtFBZfKTGfWsR9sv9VHykxn1rEfbL/VVbRQWXykxn1rEfbL/AFUfKTGfWsR9sv8AVVbRQWXykxn1rEfbL/VR8pMZ9axH2y/1VBw7ClqCUpKlHQCtnsncGEleIWBaQ2k/cs/p99BV7LxO1H/9J/EqAMFXirCQTykqib6U7j8Tjm25VicUlxCocQp1XCFeVYhXlPlnSed4roSG0BGRtcADhCAmB0sE9aS/hWnkELBXmSQeE6GDFh1A91XQ5T8pMZ9axH2y/wBVHykxn1rEfbL/AFVrF7mNtrQ8gLcbEZmlASJMEyQJCQZ05a1U737AbaDS2UqGdRSUyFDMIHBBJ1nXtTQqhvHjPreI+2X+dbja63vFbzYtxDLTSS7ldWFKOkHigqMHS4gzEiqPdjc14uBx9IQhtQJSrVUXjQiOvOo++G8an1eC3ZpKoOX/AN0iwUeogWH+KBrbG+WMdcKk4h5ImwS4oQOQAB/7p/B794xpIQXFL65lquIGpCrn1rOpUEi05+umXUQO5+6mKg2TW/MkFRxTfI+HiXCFC+qVKF/bWiTj2nUpU1jHkq6fvEkyNFNqURMcoBt1rlYqw2dgH3FBCEq4uZFo5kk8r1V263hMXiwlJ8YrAniDiuJNo4bjreTygkGBMVjsRZQcPscUZHbvz/7rBsbPdYQEK2gGyASE/NEdAsjh/tvVhsveVhsZHXUOGeFxIieyhcJ9hPsqm2g28rEPMKSjErQSJBStQJgg2ObnGvrXM9o7R2gypKFYp/MoSAl9RsSQNFc4n2iulMvpOUoSkpcBKVC4HtCSBM2v1r1hhSMubKs/TVrN7mEgCZ5fjUFDupgcVlS8/isQo2KWg45/876/y+/tqFY9w3Dr5/ucv/mmylaTJUMp14Tbv5v+e+vFqy3zgA66W7ifvqjzFbUUhPiKddCRqVvEJuYg5l2M0VDcaSufGKFALlKQQrTyqjKIV1An1Ne1NDjlFFFRBRRRQFFFFAUUUUBRRRQFFFWux93n8R/pphEwVqskXA15mToKCqp1lrMoJkJnmqw9prWJ3SQ1IfVlVHCSD4ayRZOceSTa5B7GtqnZLTiEeI20YSAAEAgC1klU2sPdVGC2Xue+c2dsgAgpWlYPW6QJCxp0+NWQ3nxmEhOIQlxJ0cHPqARAkaQQCIrzbWLxWB/0fCDRtKECxnRQnzW1i9W+xnG8QygYtTS1KJUhEqHfyqPEb8hpRVju5tkYloLbgBPCc1yCAOQjrrNTcOTdOZMpOmU2BuPnaQfuqHs7ZmHZKg01l0ulKpjurU3B1NUSNsY1TrqEYJslFjJtIjRRjNIItrcURqEHzAuAXnlofWec0httAURn55hGXU2MQPS/81Uext5lrWUO4VbbiRx5UnKBNiQeIDXrz71olqVZUDX6XI26eh9lVTDgbJKVZlJWLiFEGLGYtcR7qoNs7sYdSVeEgtuJBhSUmxMkDKNbA3Amw51pXysplJTa41Mx7u4rLqx+0g9DvhoZBKy5bJltAznS8ATBqDFtsLaSSvClWVV1OBwJHQHKU/f1ptW1zMoaZQZtlbBj/fmroex0jEpzPYlDxRq23AbSeRUCOM9CbdpE1RtbhtqK0nEjOJgBPexN7iNY0tRGYO3cRydKf6QE/wDiBUNx9avMpR9SasdsbvPMKIUnOkRxoBKb6SYsaqqgKdabUTYaamNO57VM2Lsh3EOBDaTqMyuSQZ15cjA51vfkc0GkNwtMRnWlYSVGIk+aE3NuU0Hu6m1C4lTS/EdCNXgqUkwLDLB10sT1ir9tKVSkpUTznNcdb15h8EllIDbaEJTqlOpHpFzzk399M7Z2klhvxVrQkDyiDKv5RcZif88qndv8rHdv8v39PHV5CR4BWAJBTlKlCOYVF+Wpmss3vgkOZcVhYyqlrh4m7iJCtSI1F7aUxszeXG4rElLJSBPCkp4UpB1UZzTFrG81tnWELTDh7GQn8R7asl+XXc1pH2ZthDw/hFKk8gSQR7CmY6Giom0X2cOytRdICQYRnlKyRYATInoCIv0orSbcmooorKCiiigKKKKAooooClERWm3T3UD4DjrgQ3NgCMyoj/aNe9q3OzNjYZiQ20Li5KSonXmQZHbStcaHOdl7Jw6wguYtCJnMnKZT0ubH/POt+jamCSjK3iGkpGiUrygXmwBHuisJv1hmW8SUsjKMoKkwQEqN7A6CCDHeomD2ehxwNuEMQkklZiTEjzQBNufOoOsLDDqIMOoUOhWCO2oowiW8iQGwOEW8OALcpECsdsPY7+HXmw+Mw6kzdClwlUj5wSSJiCDM/jqcPi3S3bwM4ITAcJSJMawDMTaOVWSh8RlKS0VDNEQki5kWnSCPSmcdh1rzZEpC4BSV6TBAkAGQImO9TUJVKhmGoPl7AdexpJQrOOM3B0A5R1B6morF4DaOPYeP7wXFXjIEA+IdeBWWCLk8JnW1q1eCxK3Wm3RLcxZaTmE2vKr3gzz1qW83EHMqyhz625etNvpQQQV3/rOvvoPcThyQCTJQcyTlFj2kGCRI9DS3UAi6zB7gfhSUKbUAQAQe00jD5ACAi4JFkH2XjpFEesqQQDnk6HjOosefWkIDcFBTmAt5SqQdJsZEW9lMYF99wLDjSmSSchSpJMC03iLiYI51Tub4pbeLF3VgZQtIsVcgoJk2NjlB1NhFFWmC2Nhm3lOIYAWoSDkgJixyg2T6iNamhtKXM6WoK7KUAkExpJmeUewUy1il5UeIW0uxmKEqJsJmAb2H3ipjralAgkX7G330Rl99943mAEttKSSP9UiUieSeRVbnp0vWX2RsHEY0l0hJBsVK4ZPaBCiP+zXSjh/ETlWQUkQpJSD2+dNtaXgcMltOQWCbJAgADkYAHf2g1MrpMrqImytjtstBtspQkxfKSpR6klWsjT3VObkjUzobD8QYFRsVh2lHK7CgTIClGxHt15++oOLaW2oKZLbqDZTbijboUrAUfXNNTt35Z7d/m/0tEiLKWexJiR7IvVVtfYWGfhLpNpyKDhlM6gSSOU6delSf35kEAoLTk8KVogr0skiUqmeR+FTi5mFkqjkbD7iQR7RWm3Nts7kvNStpXipH0UnML9pB9ZpnZe8uJwq8rgKosUOJhUf1EZh2152rp6XCQQU3FjJEfjaqjeMMhlSsS22pKRwkkyeiUmJCuVjQcw2ttJzEOqdcMqVy5JHIDoBRUd1QJJAgEmBMwOknWioG6KKKAooooCiitJs7c9bqM4dQQUFQCApRJHzTYAH260ETZewXX0koSQIkrXITA+iBJV6/Cmhu7isq1eCuEGFW6ax1A7Vttmb5pcAacSkKJCBlOXVUGUrjLboTWldPiJgA5TzBTce82rcktm+I15vLGfs62ihoONKQtLkgkkwI0AhUBJkx1MitmgKzk8WmiimNT0BPbWs3vPu448jMykZ1ElyV+cC4HQwdBYVK3RwWKbTDzmiAPDUkKiVKM5wZPpS6nioNtbstLeD5azrBkoCwA4QDAMpFyQNT91K3k2Wy61nxORsoT5kzwk8gqwUJtEe6aunwrhuPMNB+ZqBvFsMYhooJlQugqix7ZRI+/wBKnHsYLZ+MelSGENuAKAD/AIIzhJICSoxIEwbgm1bbYu7iW+Ja1uuJJuo8IJ5oTEJ5X1tUrd7Y6MOwlCSozxEyRJIHSLVld5t4yxiYQlzhMrStYKFiLQLkeoI6EVblxqJpti0Mxknyj5xGhPSOtR8SpCVIEAgm6irQQRz1MkWqp2dvLh1Fta1JaCkkQU5RJAUbnkIibC+ppG8m1sQUf+laUExmLxSQRBmEpieWpEGayq/cDZBAAkggEJn4ClpfEApSoz0ER74pjAvPBoF4Z3IkhCcvLTiVrym3pTmDcVlEoykEiCRbtI1tFEesOm4yKsT9H1+l0NVu0F4wYhBZSgtKScyVHRQi6jqLECU5tNKs8y8/lTcc1HkfTuPdXjwXZUpseh52PPvPsoILLmIcUFONoaQkxlJK1KMgZpEAJBEjmdbVLcwYnN/DC4gKyQesTMxI07U880pQjNE6wPhJNQtovuNsKcQlby0jyAgTEg6JkxBsLmgrnt48GHFnxEl5CCNEiYvkC1CJm2tP7pY9x9orcECeCFXKbxmA8pAga37Vk2Nx33lJcWENJWQVIAIKU9Qm4m2k2keg2uD2SwwlKW0JCdCTF+ilE6mbe2luvJbrmpQZQF3Nj1UdR6nUj4GkvqaBngtYixt/jX3048pEQCm1xEa+z3UpvEJULBV/5T+UVmc81nHm91JVlIgD04TYj0FKS/mHlUeREe8cUUlp0jhyqMemnLU+z2UeIQrywFdSNfZOo+FaaZ/ejZLz+RTaApTcyh0jKtJ6CSAvlmlJ71RN43Gs8LKljLJOHdAKxaSUEiXG/wCkzbTmd69n1CUyO5uOY0/HUCm8Vgw6mF5SNQQCCO6SFSk9xQZLAftASZLqPDUB81JVn7ajKZ0m2t6y+8u8TmKWCrhQnyoGnqeprUbf3HW6ouNODOBBSoRmI55hrI63tc1lDu3iwvJ4DmaY0t183l05zQVVFOvsKQopUII15/C1FQNUUVbbJ3bxL4zNtnIPnGAP7cxGbTlQVQE2FWTW7+JVEMqunNewjuTAB7a10PdzYWFYIKClbgF3FETJOgGiIg973q7xL6cpEzNrSdbcvWqOIuNkEggggwQdR61P2Ltl3DLC21ED5yeSh0I699RV9vtu46Xy6y0taXDOVCFEpMCSRltJvzpjA7BU003ifB/eCpcFoXCbkQQmSTyuLGLGoHcfsk45X7ww0tGeS4kxBUATLcxmJA9J51odw8anwywltxKkebxCoieYHDCYtw21561eqUoBGRoQBITMECwgACBAVp2p1S1FBMAWmDytzj861LwrzDBeRN0iw5H869Qg51Sr5qdAOqus16htUAZhYch+ZNeNIMr4jqOn0R2qIjYrZwLiHC67IIASF5U89QkCfbNTQyP5v9x/Omn2Rw3V5h84/gacDCfoz63+NA1h2keGkqCfKLn071Tv7IwyfHKGkOKdAUUlVieI21y36VcYdCEpSYSO9hSg8nP5k3T1HIn9VXG6vJeXN8TsvF4p8JcCkBPDOQ5G08gjL5gdLXPOrzwsdgQEo/8AUYcahSSCgdOZA73A6CtXiHhl+daD5VcjPTtTeLxKwCEIVcEBcTkUYCZRqUyZJ0EXq8W/DOeWWOO5N1B2XvKy63mQrywkhRAMmwgamTp1qpVtDaTuJKWWvBbBk+KkQoaSTqdNEGlndNQ/iNqyYhJMryoCSSc1kpHDrqm4mnhvMpp1KMU34JOYZ7lHzYhQFweL051jfK750vHSsBKlFAjzQCRe3Mi0kH2UrDOB1sLSuUrEggQCD6yabxjiS0pSlt+GUm5Epg9yYNJ2U6txOaC23HACkBR7lMcI6DXnzqtJDCCUiVqPI6C4sdBOtDbICiJVe44j6Hn6H20Ia4lAlXI6xr6RzB99C2EyDqAbySbG3M9Y91Ldc1LdTdDuHTZRSDBuTextz7wfZXqlNwUgoHIxE0peHQRBQI9BSWn0gQVJBFjcDS2lYk3zWJLlzfsG8SCBzPOATf2V427BIhUG4sfaL97+2jx0hVjIVe17j06iPcaHnbSAqRfyn8Y5TW23jrhHEEG2skC3v5a++nFhREQB/dcd9K8DpIskme4/OqPa+2HB/AZW2l5KkyVEWSYsc3DmgiBMmLUVdtqWR80HQ6n8RXiEqBgq1uIEeovPr/1WURt3EofSp3w0ozeGsJIKcwAJUSSMpE+RRFtJMVq1tKI899QQB+M0HjrRBzZld9Lj2Cba+/rScY0fDUUAqXlJQCs3I0vNr03iMc22lBdcyFZCQCR5ulhMA89Ky239vZHCMNiU/wAIKzNLzAKjUJUYCiOQB9JoK/aDrba1KxuCPim4WHFZVqGgyzASbda8qh27tpzErClhKQLBKRAH5m+tFRGq3X3RY87jrT6jEIQqQm9yYPFbkRHrW3ThWwAAhIAsBAt6VWbE2A0wlKEgFQErWAQVHQEiT/NVoptIBOUWE6dKobYfTxEkJknUjlbr2++vXH0kpEzebX0HbuRS2kBIAtMUgvoz3UJA69T/APkUC/GHIKP9p/GBUXA4VCSXEtlK1jjIIAUTeSAqCrvExT+IfGRUTpaAeenKlhzolR9kfGKBsrXnskWTzV1PYH6NKezZVeUWPU/lXjayVK4SNNSO/SeteYpS8uidUjzHmofy0DmRX0h7B+ZNIZbMrlSjft9FPQUsBfVPuP50lDapVxEX5AdB1BoE4hkcN1eYfOP4GnPBT099/jSH2vLxK8w5/kKX4Ce59VE/E0CcO0lIsALkSB3NVmH2oUuqQ64ghCTxyLTBGboYi0c6s2GUx5RqeXc1C21g0QHfBDi0gwkHLmsTHQ3EiQYOlZyl8yvR0OphjvHPHcv3l+YmOrSoESbgi0nX0rxjGJWJRKusDQ9DMQaz+yN4l8SnkobZTaSCFJIzHKSfOUgQSBcnSsntPeY5yMLLKM+clJMuKk8SpOh6Vvcs8PNnjZnqXf7fy6UXFAryolUSASACYIuQTAsORrl28Ixj2IKHkqLnJA8oHVPLL39a0OxP2ggqAxCQm0Z0Axy1Go05deVa5bnitnwzGZPCuUkX6QTPuqKwmz8HiMKtpC0l1OYEsSf4aiYC4EpUBFlaT0ImugNIVcFWhOgHrznrWd3ed2kHVJdShTRvnskA68MCTc6EdbitEhK891Jgj6J5H1/mHupbqbLZJuhTV0nMrofb6DqPvpa2EkQZj1P50l9tRB4u4gDUX5zXqE5gDmVBvr+VYk3zWZLbuvGmkkAlInnbmLH769SkJVyAI9Lj/HwpDbAzEGb3uonsdT/yaU8ymJCRIuLe/wC6a208feTHmTIuLj3e3T20ztDa7TLfirVCeVjxHkE9SamDtVfjiwuWH8igo2Se8n+2IN7cqDP7L/aEypRQ42ptM8KpkQfpaR99Wu19kM4lKXQOLUPNqAI5TmSTIH4Vk94tyMgK8MvxEjVBuof0kCFD3G3OqTZe2MRhFkIJTfibWLHspJ0+40Fxt3cZ5sFxDiVp55lBKvaVQFGlbtb7LaShl0SgGM9ypKfTmB8KvsHtzC4xhLT+UEmChSwm40gzP3Vm94NyH2ipbSc7WoAMqSP5hAn2TQabamzcLjiIxCVLIhJQocJ18msGYOhsK5ztJjw3Vt5s2RRTPXKSKa4kK5pUD6EH4g03UBRRRQdnwuGUAFuvHhnNHCggWlUyq0Ezm9Zp9xtCgIOYKIvmJB5nnBsIrnK3MbjyG0rBGUEoQqEgEgSsTcg9ZNbDdfd9eGT4answ80ARlJsYJuQQO3PrVVeJZSNEgewUMJHERzPwt+FeeAASrMqI0zGLc+s/lSWMMjKJSCdbiTJudaI9xDqRAKgJUOfS/wCFenEJ6z6X+FNskyAUBN1QAZkCwJgWmdLxNSaBhhwcRhV1HkRpA5+lDqyYGU+Yakcr9Z5dK9bfSBdQEybkcya8dfTKbzxcr/NV0oFlSvoj/d/g0hrPKrp16E8h3FOB0dFe4/jTTDpvCD5lakdT3oGtrP8AhtlxaiEpInKm+o6k1mdhb0uLxa8O6SUlaktqsmMuaM0a5gBodY1mtBvK2F4Z1KhqIIn8Y5a6cq5U1gFBCnEmMih26QQesms98nDph0s88e7GXXP+PLsDLI4tfMfnHt3oew6LSkawbdZGuvOq3d/HlbKS4pQWogGEGCcqZg5SJ1qwcbC0khZXBHlVpBH0Y6U757rGUuNu+NfLH71bsvobV4KlOMyVFtXEpB6oMSQB3mOtZTAbHU8sIaIJIJhUgpj6RiB767F+7DmCfUk/Gqlex8rxcYKWySC4giUOAyCSB5VyJzD2zV7pfbMss41/ZzPauw3mfOmU/TTdPpI0INoNXO4LuM8SGZ8HN/EzJJSLDSL5oA0PSbV0HamES60pKgSIOhIOnIi9O4HBIbbShtIShIgR/wAuanjyk3JzXjLhuAk2J6c78z3r19R4SE6HmetrxPUe6g4hAWRmFwDqLxP5ivXXEkEayOQJ+FJzd0ktu6grjEoIygt5iCFZxOU35JlOttDWHVt5eCeWlnyFapaVdIAOqD83naT3roToS62UqSopWmFJuJBEETIj31kNt7rqFktKdajhEp8VrLyQq+dF/IrpaNaXcu/TXO1zs/biMSgqw7pDqRdDgHDNrwLpmNDV2Gusz/UfzrjOKY8JSVNuzIkFJyqSRqFCZSoH2HkTWt3d38Jyt4kgCIDoBJsPn359QOdallmxtWcOkSCkGDab25a+72Vlt4dkYsuB7OICQFHDy2pKUqnVSjJhRP8Ab71bH3ndexhaKSltSZQYAVAEgmZCp7RrWrLA0JUf7j+dBSbP24pHhIeBKVpgPQoDMIGVYMwokzMxemt48RhA0TiWwrKSEp+eZ0gpMiw1mLVPxey86TkyByeIrBUFQMoKxInhjU9Olcq2yy4h1aXElKkmADNkiwy5rlMCx6UER0gkkCATYdO3WtBsXfPEMJyHK4gCEhfLpBF47fDWs5RUDuJfU4tS1GVKJJPrTVFFAUUUUF1upvArCO5ozIVZaeZ6EHkQfxrpa9qoS0p8qT4diFCVSmwkACSJPsrjVWWyca2hSQ8jxWp8pJGWdSmDbuOcCqNTjt9FKeUGnElhKOLMnLmuJyTxZoMCfdWu2U64tpC3pQtQ4k8IiSYFp5Rz92lVmy9i4IFDzLMgyQqZEQRYKVa5iKtsRhAsyUAxEBSrApkhQTBAUJ1106UHruDSsqSorgpAstQ1J5giNBTymUAeUEAc+3rUbZmDLYUApRuBxqUvQDqRF55U5jWlFtQKtQRYRrbrQO4ZrKgCIgCfdQvzJHZR+A/+1M7PwPhNpbzqVlETpP5UYoobBWrMQlCibk2EGwntRZNpRNM4d5MHiT5lcx9I1H2btDDv/wCkpCiNRAzJ9QbipeGEJ9qv/I1CzXFMY0oUIIJGYaA9eRAtUBO7mFg/wSZMkGw9xIq3f0H9SfjUXbKFFleXWPu5/dNYyxx1ctben/zZ53OdOZaluvpNqjbDnhkICShAGZITE5gIBm8fG9SNiI/huEZZJJMmVaWzAGReTBqBspSS4G1nME31smQRBJEEi1gbT61e4AlLQQq6wkAlIJB1iDHFYf8AJrj0scrl3Wanp+r/AFDqYdLofgS7u+b8pCMxvmj+2ND3JpRHFckkjXSYPOPWkMvylJCVGw5Ry/mihxRzJIT1FyBqJ5T0r03GV89ZLxfucS2O/tJP3ExSGm0qSmUgwIuOlj94pQK+iR7SfwFIaSriEiyj83re1+9Ttk5JjjjyWoQUxbUe8T8QKcqO+2cpOZRiDy5GeQ7U54I6qP8AcfhMVpoNcx0J++/40jEPJAnMOEzqPb9xNBZRnukXHMTofjf7qdCRpFulBV7S2JhXlZ3G5UQQSgKGaTPEUeY9zyrM7z7pMpQCw24kiL3IjQlYNwAYlQHPStwwTlE6ix9lq8xKbA6cj6G3s5H2Vnt14al9Vx3ZmLUy6Fgg5OcmAOxH/J5V0/YO8LeJTwKSF82zOYey0juLVltsbgLQoHDrBSqygsxltNzzTI6dPWs7itnPYZYKgUqk5FpVN0nW3t1jrpT6rxrtdaKVBQJUL2MJ5jTUnlPuFMbW2Q08kB3iSOsCBr5gJTpNjyrKbD36t4WJ8wsHALSPpi0QeYprfzenOkMNKsoAuEHWRZMgwRBk+7rWmbNMltVppDq0tLK0AwFHn6dR3qJRRUQUUUUBRRRQFFFFBLYx7iQlIUciTIQTwm4JkaEGBIrq+7232sQ0FghKh50kiUm/3GCRXHal7O2g4wvO0opVBE9j1mx/xQdhGNbQjOtYCZJzHTiNr+2KcxL4yzBiQZiBYg846VyneHeV7EwkqIaT5Uaf7o1NR17cfLAw5WS2DMc+UCfoiJjvVHYGMRnSFJAKSJBzCD6FJNJlZWRCRwjmTqVcoE6da5tudvWcMfDcksk8hdB6jqNJHa1dIw+JQrjSoFKgmDOvO3vp9RX7O3YZae8VsZVnNMTHF2JtHKKssM2colRvflzv0pf7wnrPpf4UnDu8KbK0HIjl3oI+PeaRAW4AbKhS4sCJMToOtSVMJg2E9xNNv3jg0IuY6joTTgUsk8IA6lUz7APZrQRsNg0BwqyJC8oJjSTmkj86nAc6jhKs+ounp0Pr3pzwj9NX3flVnbL4Orc+pJu3j5+HjGkRAFheZA62sdbX5V7iPmmIgj77fjSWkSLkmCoeY/SPekYplKW1qCQVJEgHUkX1PpWcrN7cscdSW7448/uZ2ttlpgJ8RQlRhKZAJ78RAgT1qq3b3waxCikjw1nRJM5tdCNTEWijbW7QeYKnljxkoJzZiltB10FsqRIk3jWart0NzlMu+K+ElQJDaRcSL559hikldJL7bErmwQoz2A+JFJYWrKOG+lz0tyB6Vkv2gbwuNfwG86CoAlYtbogi+uvu50j9nu8jjhOHdlZupKzqBaQfbee/pSW7JvdbEtuKKYyiD3NtCSbQBM+yluhRJlftA198/CvVrGVSSYka9+XqO1NvvhAPziBMIuTaeH15TFc8bb1LL8cfp7u1hp1xKJzuQnzXIEnQxAk2AMDvXuIS2lJKyMvVSrX/AKjFVW8+y/HQkpzZknhCpCQTaToeftFYDaePxCEnDOiUoWSnMmIjMODom/LoLxWpjZb8NbjqzYTlkpAPO3PTl3rM717zNJS4hKkqcSvKkATEROabWPTpHWqfYe+y2kZXD4ggkEg5rAAJJm2mpmZmZscvtLGKedW4rzLUSY0HYelWzfDWHU7LuTkY/HrdylUEpTlkJAJEnzRqbxPYVEooquYooooCiiigKKKKAooooCiiigKKKKArSbp70qwxKVDM2eXNJ7HpWbp1ppSiEpSVE2AAkn0ArphncbwNDjN48S8+hxsrK0k5UIEhItYRJUT872V0rZq1KZbK05VFCZT0MaVmty91nMOC84UhxSYyxOQeoOp7ffWmYbVlTKjoNAOneaufUuU1f4/Q0ce09qfiKXTDzVhJUbp5kcx0illhPMA+t/jXOa9pd64MNOqCz4hQDxZQDylMTPOny8nrPoCfhQEAKEACx0HdNOUUw05dVlebpHJPWKWuTIy2uJJ1+NCPMoeh94j8KcqCu2ktXglfCIAMk6TaZMDQ1T7qbbdxJcKhDbakhCwNZ4YUSTKoM+2rjaGyW8Qz4TmbKCYgkeUkAmNRzg9Kz23cEcKw2htS0pZaWorEgLWopSAYMTmUVQTIy2mrvZLtM332d4rYbmXIUpqdVKTBKUgAAykk3PLSqP8AZdhwXXswuEgQfUzI9nSrDcreYupcGJWCpK0qQpUfOkAAAWg8/wCaKu8BgEsuuuJk+I4D5SCJBkFSrEZlEj1A5CgsnMI2UlJSMqgQQBEg+lDFpHQn77/j91elw/QPvH51E2jjwwlTrgASEyYMzHITEqvp2oFYrabIWGS4kOKsBmEgnSb2UTEDU8hY1T797Pbcwq3/AAwXEpTCouBmBPuv6SeRNQMLslrFrViGX1DjCiCDwrjhspU2IB6EGBFW+2cepppRsopUnxGyRKUuc4SLnMbDnBig5JRUnHpAcUAQoAkZk6K/mEddYqNUBRRRQFFFFAUUUUBRRRQFFFFAUUUUBRRTrDKlqCUJKlHQAST7qBqurbk7FaaYQ6EytwBUmJAMx7YVBPw0qi2B+z1RheJOUcm06/3Hl6D31osLi2sIhllxxaUFP8NaoIOpIMCxAI1/CtY43K6nkXTyoST0BNepEAT0qHmacbUpCs6YVcKJGnrFLbeaLhbAlQFyE2GlirQKuDGsVr8PPmavHn6B119MRmBunQzzHSlF4cgT6A/E2qpw220PPLZBU24y5BQQP4iQQJFtLg9dDV1WbJNBhbhzJhBuSLx0nr2qkxO+mHQpaVEyjsTnuRCLCYjWwvYmpm9S3E4dRa8wBPeAlUx0Mf4vFciTmKkxc2A/AVPSc930dqZUVHMlQhSUkcPLijU96dDZ+ko+78AKhKxSWENeMv5oQVEeZUpAskcyT6VY0VEw+EQFrVHFMEyZIgETflmoSy04FBTQgKykLQLxBkTqnmDTvipSoyoCQDc+o/ClB4cpPoCfwoMhjtzAhDymSYW0R4fMLStKhlPOSiIPU1dbtB04NvxVFS8pMnUQTAV3EAHnViy6ZUMqrHsNYPM96cJVySPaf8UA68EpK4JETwgkn0Auay37R282HQ5lUUgzlgjLmTAUrpHTqYrS4YKygSm0jQ8jHXtSNobPDza2lrVlWIMRaelqDjWExi2jKFEXBjkYuJHOrbbG8zjxWQVJDiUpWmbcNxljlP8Ay8VSvsKQooUIUDBBpuoCiiigKKKKAooooCiiigKKKKAooooCiirzdbd1WJcjRKQFK0uM0QO9j7qBjd3YTmKXlQISPOs6Afn0FdP3e2Ezh20+GgZikZlnzKm9zyHYUrZ+zkYdtQaQlIuo3JJNzew00HapzTSgACoWHIfmTVHrqwASawX7S9rHgwySICQpcdfmg9LXjuKtMTtZLhddK1FjDyBy8R2LWSAYAsJtJnlXOsdi1OrU4sypRk0E/Ym33cOFpQeFYgjp3T/NW/XtltrBeJh4dgT3n5ylgXmxUdPdXK5qZhtoOIbW2kkJWLwojpNgYMgRcaE12nWy1q3x4/72mi8dtdxb5fCilwkGRaCABbtauibn70fvKMigPGSOIaBQ6j8RXK61/wCzTZZW8X+TXeJKgeXMR6a1yt7ruq6A6FkpnKBm7nUEdutZH5F5cehSUnwLrJEQkj5sHQSRAvb0raOiwPcfEfnS6WaZxzxzm8f0+zL7/wCESWQtTqxkCikRIUq0ZrQOnLXtUndPaKnmm1OMrMpP8ZRSQopJBtOYEkG0U7vs1mwjo6Jn3AmvdzcGWcG0lWvET2JUbWrLVm1oEwsW1SfuI/OnaaeUAUk9T8CfwrxOKQdDPs/OqFA8RHUCPZM/Ee+m9oY1DLanHDCU6/kOpOkVmd5Nql9S8PhytLrYUViQnMkC4CrwZg941q02C0t3Bsh6HMyASV8RvoeVwOcz3oKfA7xOrUt5C84m+FMAhAtKDqpzhun+b0qy2hvOz+5l9C1JzApRbiC4PCbGDbW451md8d1FYb+MyYRMqSDGQg6pvpe3MVkXXlKJKiSSZJPM9T1PegXjsSXHFLUoqKjJJiT6xamKKKgKKKKAooooCiiigKKKKAooooP/2Q==;" vertex="1" parent="1">
          <mxGeometry x="670" y="960" width="264" height="191" as="geometry" />
        </mxCell>
        <mxCell id="oj0V7E_Q8fi1NZaQkgy_-12" style="edgeStyle=none;html=1;labelBackgroundColor=none;endArrow=none;endFill=0;strokeWidth=2;fontFamily=Verdana;fontSize=15;fontColor=#036897;exitX=0.5;exitY=0;exitDx=0;exitDy=0;" edge="1" parent="1" source="oj0V7E_Q8fi1NZaQkgy_-11">
          <mxGeometry relative="1" as="geometry">
            <mxPoint x="590.0049315068502" y="912" as="sourcePoint" />
            <mxPoint x="682.0597260273973" y="807" as="targetPoint" />
          </mxGeometry>
        </mxCell>
        <mxCell id="oj0V7E_Q8fi1NZaQkgy_-15" style="edgeStyle=orthogonalEdgeStyle;curved=1;rounded=0;orthogonalLoop=1;jettySize=auto;html=1;exitX=0.5;exitY=1;exitDx=0;exitDy=0;entryX=0.5;entryY=1;entryDx=0;entryDy=0;strokeWidth=8;endArrow=none;endFill=0;strokeColor=#0000FF;" edge="1" parent="1" source="oj0V7E_Q8fi1NZaQkgy_-13" target="oj0V7E_Q8fi1NZaQkgy_-11">
          <mxGeometry relative="1" as="geometry">
            <Array as="points">
              <mxPoint x="292" y="1260" />
              <mxPoint x="802" y="1260" />
            </Array>
          </mxGeometry>
        </mxCell>
        <mxCell id="oj0V7E_Q8fi1NZaQkgy_-17" value="&lt;font style=&quot;font-size: 36px&quot;&gt;通道&lt;/font&gt;" style="edgeLabel;html=1;align=center;verticalAlign=middle;resizable=0;points=[];" vertex="1" connectable="0" parent="oj0V7E_Q8fi1NZaQkgy_-15">
          <mxGeometry x="-0.1154" y="-6" relative="1" as="geometry">
            <mxPoint x="45" y="24" as="offset" />
          </mxGeometry>
        </mxCell>
        <mxCell id="oj0V7E_Q8fi1NZaQkgy_-13" value="" style="shape=image;verticalLabelPosition=bottom;labelBackgroundColor=default;verticalAlign=top;aspect=fixed;imageAspect=0;image=data:image/jpeg,/9j/4AAQSkZJRgABAQAAAQABAAD/2wCEAAoGBxMUExYUFBQXFxYYGR8dGBgZGiMhIBkiHSAdICMgGSAcIioiHB0nIBkgIzUjJysuMTExGSE2OzYwOiowMS4BCwsLDw4PHBERHDAnIicwMDAyMDAwMDAwMjAwMDAwODgyMDAwMDAwMDAwMDAwLjExMDA1OTkwMDUwMjIwMDIwMP/AABEIAL8BCAMBIgACEQEDEQH/xAAbAAABBQEBAAAAAAAAAAAAAAAAAgMEBQYHAf/EAEIQAAEDAgMGAwMJBwQBBQAAAAECAxEAIQQSMQUGIkFRYRMycYGRsRZCUlSTocHR0gcUI2JyguEzkvDxsiRDosLi/8QAGgEBAQEBAQEBAAAAAAAAAAAAAAECAwQGBf/EACoRAQEAAgEEAQIFBQEAAAAAAAABAhEhAxIxQVFhkRMycbHxBYGh4fAE/9oADAMBAAIRAxEAPwDlfykxn1rEfbL/AFUfKTGfWsR9sv8AVVbRQWXykxn1rEfbL/VR8pMZ9axH2y/1VW0UFl8pMZ9axH2y/wBVHykxn1rEfbL/AFVW0UFl8pMZ9axH2y/1UfKTGfWsR9sv9VVtFBZfKTGfWsR9sv8AVR8pMZ9axH2y/wBVVtFBZfKTGfWsR9sv9VHykxn1rEfbL/VVbRQWXykxn1rEfbL/AFUfKTGfWsR9sv8AVVbRQWXykxn1rEfbL/VR8pMZ9axH2y/1VBw7ClqCUpKlHQCtnsncGEleIWBaQ2k/cs/p99BV7LxO1H/9J/EqAMFXirCQTykqib6U7j8Tjm25VicUlxCocQp1XCFeVYhXlPlnSed4roSG0BGRtcADhCAmB0sE9aS/hWnkELBXmSQeE6GDFh1A91XQ5T8pMZ9axH2y/wBVHykxn1rEfbL/AFVrF7mNtrQ8gLcbEZmlASJMEyQJCQZ05a1U737AbaDS2UqGdRSUyFDMIHBBJ1nXtTQqhvHjPreI+2X+dbja63vFbzYtxDLTSS7ldWFKOkHigqMHS4gzEiqPdjc14uBx9IQhtQJSrVUXjQiOvOo++G8an1eC3ZpKoOX/AN0iwUeogWH+KBrbG+WMdcKk4h5ImwS4oQOQAB/7p/B794xpIQXFL65lquIGpCrn1rOpUEi05+umXUQO5+6mKg2TW/MkFRxTfI+HiXCFC+qVKF/bWiTj2nUpU1jHkq6fvEkyNFNqURMcoBt1rlYqw2dgH3FBCEq4uZFo5kk8r1V263hMXiwlJ8YrAniDiuJNo4bjreTygkGBMVjsRZQcPscUZHbvz/7rBsbPdYQEK2gGyASE/NEdAsjh/tvVhsveVhsZHXUOGeFxIieyhcJ9hPsqm2g28rEPMKSjErQSJBStQJgg2ObnGvrXM9o7R2gypKFYp/MoSAl9RsSQNFc4n2iulMvpOUoSkpcBKVC4HtCSBM2v1r1hhSMubKs/TVrN7mEgCZ5fjUFDupgcVlS8/isQo2KWg45/876/y+/tqFY9w3Dr5/ucv/mmylaTJUMp14Tbv5v+e+vFqy3zgA66W7ifvqjzFbUUhPiKddCRqVvEJuYg5l2M0VDcaSufGKFALlKQQrTyqjKIV1An1Ne1NDjlFFFRBRRRQFFFFAUUUUBRRRQFFFWux93n8R/pphEwVqskXA15mToKCqp1lrMoJkJnmqw9prWJ3SQ1IfVlVHCSD4ayRZOceSTa5B7GtqnZLTiEeI20YSAAEAgC1klU2sPdVGC2Xue+c2dsgAgpWlYPW6QJCxp0+NWQ3nxmEhOIQlxJ0cHPqARAkaQQCIrzbWLxWB/0fCDRtKECxnRQnzW1i9W+xnG8QygYtTS1KJUhEqHfyqPEb8hpRVju5tkYloLbgBPCc1yCAOQjrrNTcOTdOZMpOmU2BuPnaQfuqHs7ZmHZKg01l0ulKpjurU3B1NUSNsY1TrqEYJslFjJtIjRRjNIItrcURqEHzAuAXnlofWec0httAURn55hGXU2MQPS/81Uext5lrWUO4VbbiRx5UnKBNiQeIDXrz71olqVZUDX6XI26eh9lVTDgbJKVZlJWLiFEGLGYtcR7qoNs7sYdSVeEgtuJBhSUmxMkDKNbA3Amw51pXysplJTa41Mx7u4rLqx+0g9DvhoZBKy5bJltAznS8ATBqDFtsLaSSvClWVV1OBwJHQHKU/f1ptW1zMoaZQZtlbBj/fmroex0jEpzPYlDxRq23AbSeRUCOM9CbdpE1RtbhtqK0nEjOJgBPexN7iNY0tRGYO3cRydKf6QE/wDiBUNx9avMpR9SasdsbvPMKIUnOkRxoBKb6SYsaqqgKdabUTYaamNO57VM2Lsh3EOBDaTqMyuSQZ15cjA51vfkc0GkNwtMRnWlYSVGIk+aE3NuU0Hu6m1C4lTS/EdCNXgqUkwLDLB10sT1ir9tKVSkpUTznNcdb15h8EllIDbaEJTqlOpHpFzzk399M7Z2klhvxVrQkDyiDKv5RcZif88qndv8rHdv8v39PHV5CR4BWAJBTlKlCOYVF+Wpmss3vgkOZcVhYyqlrh4m7iJCtSI1F7aUxszeXG4rElLJSBPCkp4UpB1UZzTFrG81tnWELTDh7GQn8R7asl+XXc1pH2ZthDw/hFKk8gSQR7CmY6Giom0X2cOytRdICQYRnlKyRYATInoCIv0orSbcmooorKCiiigKKKKAooooClERWm3T3UD4DjrgQ3NgCMyoj/aNe9q3OzNjYZiQ20Li5KSonXmQZHbStcaHOdl7Jw6wguYtCJnMnKZT0ubH/POt+jamCSjK3iGkpGiUrygXmwBHuisJv1hmW8SUsjKMoKkwQEqN7A6CCDHeomD2ehxwNuEMQkklZiTEjzQBNufOoOsLDDqIMOoUOhWCO2oowiW8iQGwOEW8OALcpECsdsPY7+HXmw+Mw6kzdClwlUj5wSSJiCDM/jqcPi3S3bwM4ITAcJSJMawDMTaOVWSh8RlKS0VDNEQki5kWnSCPSmcdh1rzZEpC4BSV6TBAkAGQImO9TUJVKhmGoPl7AdexpJQrOOM3B0A5R1B6morF4DaOPYeP7wXFXjIEA+IdeBWWCLk8JnW1q1eCxK3Wm3RLcxZaTmE2vKr3gzz1qW83EHMqyhz625etNvpQQQV3/rOvvoPcThyQCTJQcyTlFj2kGCRI9DS3UAi6zB7gfhSUKbUAQAQe00jD5ACAi4JFkH2XjpFEesqQQDnk6HjOosefWkIDcFBTmAt5SqQdJsZEW9lMYF99wLDjSmSSchSpJMC03iLiYI51Tub4pbeLF3VgZQtIsVcgoJk2NjlB1NhFFWmC2Nhm3lOIYAWoSDkgJixyg2T6iNamhtKXM6WoK7KUAkExpJmeUewUy1il5UeIW0uxmKEqJsJmAb2H3ipjralAgkX7G330Rl99943mAEttKSSP9UiUieSeRVbnp0vWX2RsHEY0l0hJBsVK4ZPaBCiP+zXSjh/ETlWQUkQpJSD2+dNtaXgcMltOQWCbJAgADkYAHf2g1MrpMrqImytjtstBtspQkxfKSpR6klWsjT3VObkjUzobD8QYFRsVh2lHK7CgTIClGxHt15++oOLaW2oKZLbqDZTbijboUrAUfXNNTt35Z7d/m/0tEiLKWexJiR7IvVVtfYWGfhLpNpyKDhlM6gSSOU6delSf35kEAoLTk8KVogr0skiUqmeR+FTi5mFkqjkbD7iQR7RWm3Nts7kvNStpXipH0UnML9pB9ZpnZe8uJwq8rgKosUOJhUf1EZh2152rp6XCQQU3FjJEfjaqjeMMhlSsS22pKRwkkyeiUmJCuVjQcw2ttJzEOqdcMqVy5JHIDoBRUd1QJJAgEmBMwOknWioG6KKKAooooCiitJs7c9bqM4dQQUFQCApRJHzTYAH260ETZewXX0koSQIkrXITA+iBJV6/Cmhu7isq1eCuEGFW6ax1A7Vttmb5pcAacSkKJCBlOXVUGUrjLboTWldPiJgA5TzBTce82rcktm+I15vLGfs62ihoONKQtLkgkkwI0AhUBJkx1MitmgKzk8WmiimNT0BPbWs3vPu448jMykZ1ElyV+cC4HQwdBYVK3RwWKbTDzmiAPDUkKiVKM5wZPpS6nioNtbstLeD5azrBkoCwA4QDAMpFyQNT91K3k2Wy61nxORsoT5kzwk8gqwUJtEe6aunwrhuPMNB+ZqBvFsMYhooJlQugqix7ZRI+/wBKnHsYLZ+MelSGENuAKAD/AIIzhJICSoxIEwbgm1bbYu7iW+Ja1uuJJuo8IJ5oTEJ5X1tUrd7Y6MOwlCSozxEyRJIHSLVld5t4yxiYQlzhMrStYKFiLQLkeoI6EVblxqJpti0Mxknyj5xGhPSOtR8SpCVIEAgm6irQQRz1MkWqp2dvLh1Fta1JaCkkQU5RJAUbnkIibC+ppG8m1sQUf+laUExmLxSQRBmEpieWpEGayq/cDZBAAkggEJn4ClpfEApSoz0ER74pjAvPBoF4Z3IkhCcvLTiVrym3pTmDcVlEoykEiCRbtI1tFEesOm4yKsT9H1+l0NVu0F4wYhBZSgtKScyVHRQi6jqLECU5tNKs8y8/lTcc1HkfTuPdXjwXZUpseh52PPvPsoILLmIcUFONoaQkxlJK1KMgZpEAJBEjmdbVLcwYnN/DC4gKyQesTMxI07U880pQjNE6wPhJNQtovuNsKcQlby0jyAgTEg6JkxBsLmgrnt48GHFnxEl5CCNEiYvkC1CJm2tP7pY9x9orcECeCFXKbxmA8pAga37Vk2Nx33lJcWENJWQVIAIKU9Qm4m2k2keg2uD2SwwlKW0JCdCTF+ilE6mbe2luvJbrmpQZQF3Nj1UdR6nUj4GkvqaBngtYixt/jX3048pEQCm1xEa+z3UpvEJULBV/5T+UVmc81nHm91JVlIgD04TYj0FKS/mHlUeREe8cUUlp0jhyqMemnLU+z2UeIQrywFdSNfZOo+FaaZ/ejZLz+RTaApTcyh0jKtJ6CSAvlmlJ71RN43Gs8LKljLJOHdAKxaSUEiXG/wCkzbTmd69n1CUyO5uOY0/HUCm8Vgw6mF5SNQQCCO6SFSk9xQZLAftASZLqPDUB81JVn7ajKZ0m2t6y+8u8TmKWCrhQnyoGnqeprUbf3HW6ouNODOBBSoRmI55hrI63tc1lDu3iwvJ4DmaY0t183l05zQVVFOvsKQopUII15/C1FQNUUVbbJ3bxL4zNtnIPnGAP7cxGbTlQVQE2FWTW7+JVEMqunNewjuTAB7a10PdzYWFYIKClbgF3FETJOgGiIg973q7xL6cpEzNrSdbcvWqOIuNkEggggwQdR61P2Ltl3DLC21ED5yeSh0I699RV9vtu46Xy6y0taXDOVCFEpMCSRltJvzpjA7BU003ifB/eCpcFoXCbkQQmSTyuLGLGoHcfsk45X7ww0tGeS4kxBUATLcxmJA9J51odw8anwywltxKkebxCoieYHDCYtw21561eqUoBGRoQBITMECwgACBAVp2p1S1FBMAWmDytzj861LwrzDBeRN0iw5H869Qg51Sr5qdAOqus16htUAZhYch+ZNeNIMr4jqOn0R2qIjYrZwLiHC67IIASF5U89QkCfbNTQyP5v9x/Omn2Rw3V5h84/gacDCfoz63+NA1h2keGkqCfKLn071Tv7IwyfHKGkOKdAUUlVieI21y36VcYdCEpSYSO9hSg8nP5k3T1HIn9VXG6vJeXN8TsvF4p8JcCkBPDOQ5G08gjL5gdLXPOrzwsdgQEo/8AUYcahSSCgdOZA73A6CtXiHhl+daD5VcjPTtTeLxKwCEIVcEBcTkUYCZRqUyZJ0EXq8W/DOeWWOO5N1B2XvKy63mQrywkhRAMmwgamTp1qpVtDaTuJKWWvBbBk+KkQoaSTqdNEGlndNQ/iNqyYhJMryoCSSc1kpHDrqm4mnhvMpp1KMU34JOYZ7lHzYhQFweL051jfK750vHSsBKlFAjzQCRe3Mi0kH2UrDOB1sLSuUrEggQCD6yabxjiS0pSlt+GUm5Epg9yYNJ2U6txOaC23HACkBR7lMcI6DXnzqtJDCCUiVqPI6C4sdBOtDbICiJVe44j6Hn6H20Ia4lAlXI6xr6RzB99C2EyDqAbySbG3M9Y91Ldc1LdTdDuHTZRSDBuTextz7wfZXqlNwUgoHIxE0peHQRBQI9BSWn0gQVJBFjcDS2lYk3zWJLlzfsG8SCBzPOATf2V427BIhUG4sfaL97+2jx0hVjIVe17j06iPcaHnbSAqRfyn8Y5TW23jrhHEEG2skC3v5a++nFhREQB/dcd9K8DpIskme4/OqPa+2HB/AZW2l5KkyVEWSYsc3DmgiBMmLUVdtqWR80HQ6n8RXiEqBgq1uIEeovPr/1WURt3EofSp3w0ozeGsJIKcwAJUSSMpE+RRFtJMVq1tKI899QQB+M0HjrRBzZld9Lj2Cba+/rScY0fDUUAqXlJQCs3I0vNr03iMc22lBdcyFZCQCR5ulhMA89Ky239vZHCMNiU/wAIKzNLzAKjUJUYCiOQB9JoK/aDrba1KxuCPim4WHFZVqGgyzASbda8qh27tpzErClhKQLBKRAH5m+tFRGq3X3RY87jrT6jEIQqQm9yYPFbkRHrW3ThWwAAhIAsBAt6VWbE2A0wlKEgFQErWAQVHQEiT/NVoptIBOUWE6dKobYfTxEkJknUjlbr2++vXH0kpEzebX0HbuRS2kBIAtMUgvoz3UJA69T/APkUC/GHIKP9p/GBUXA4VCSXEtlK1jjIIAUTeSAqCrvExT+IfGRUTpaAeenKlhzolR9kfGKBsrXnskWTzV1PYH6NKezZVeUWPU/lXjayVK4SNNSO/SeteYpS8uidUjzHmofy0DmRX0h7B+ZNIZbMrlSjft9FPQUsBfVPuP50lDapVxEX5AdB1BoE4hkcN1eYfOP4GnPBT099/jSH2vLxK8w5/kKX4Ce59VE/E0CcO0lIsALkSB3NVmH2oUuqQ64ghCTxyLTBGboYi0c6s2GUx5RqeXc1C21g0QHfBDi0gwkHLmsTHQ3EiQYOlZyl8yvR0OphjvHPHcv3l+YmOrSoESbgi0nX0rxjGJWJRKusDQ9DMQaz+yN4l8SnkobZTaSCFJIzHKSfOUgQSBcnSsntPeY5yMLLKM+clJMuKk8SpOh6Vvcs8PNnjZnqXf7fy6UXFAryolUSASACYIuQTAsORrl28Ixj2IKHkqLnJA8oHVPLL39a0OxP2ggqAxCQm0Z0Axy1Go05deVa5bnitnwzGZPCuUkX6QTPuqKwmz8HiMKtpC0l1OYEsSf4aiYC4EpUBFlaT0ImugNIVcFWhOgHrznrWd3ed2kHVJdShTRvnskA68MCTc6EdbitEhK891Jgj6J5H1/mHupbqbLZJuhTV0nMrofb6DqPvpa2EkQZj1P50l9tRB4u4gDUX5zXqE5gDmVBvr+VYk3zWZLbuvGmkkAlInnbmLH769SkJVyAI9Lj/HwpDbAzEGb3uonsdT/yaU8ymJCRIuLe/wC6a208feTHmTIuLj3e3T20ztDa7TLfirVCeVjxHkE9SamDtVfjiwuWH8igo2Se8n+2IN7cqDP7L/aEypRQ42ptM8KpkQfpaR99Wu19kM4lKXQOLUPNqAI5TmSTIH4Vk94tyMgK8MvxEjVBuof0kCFD3G3OqTZe2MRhFkIJTfibWLHspJ0+40Fxt3cZ5sFxDiVp55lBKvaVQFGlbtb7LaShl0SgGM9ypKfTmB8KvsHtzC4xhLT+UEmChSwm40gzP3Vm94NyH2ipbSc7WoAMqSP5hAn2TQabamzcLjiIxCVLIhJQocJ18msGYOhsK5ztJjw3Vt5s2RRTPXKSKa4kK5pUD6EH4g03UBRRRQdnwuGUAFuvHhnNHCggWlUyq0Ezm9Zp9xtCgIOYKIvmJB5nnBsIrnK3MbjyG0rBGUEoQqEgEgSsTcg9ZNbDdfd9eGT4answ80ARlJsYJuQQO3PrVVeJZSNEgewUMJHERzPwt+FeeAASrMqI0zGLc+s/lSWMMjKJSCdbiTJudaI9xDqRAKgJUOfS/wCFenEJ6z6X+FNskyAUBN1QAZkCwJgWmdLxNSaBhhwcRhV1HkRpA5+lDqyYGU+Yakcr9Z5dK9bfSBdQEybkcya8dfTKbzxcr/NV0oFlSvoj/d/g0hrPKrp16E8h3FOB0dFe4/jTTDpvCD5lakdT3oGtrP8AhtlxaiEpInKm+o6k1mdhb0uLxa8O6SUlaktqsmMuaM0a5gBodY1mtBvK2F4Z1KhqIIn8Y5a6cq5U1gFBCnEmMih26QQesms98nDph0s88e7GXXP+PLsDLI4tfMfnHt3oew6LSkawbdZGuvOq3d/HlbKS4pQWogGEGCcqZg5SJ1qwcbC0khZXBHlVpBH0Y6U757rGUuNu+NfLH71bsvobV4KlOMyVFtXEpB6oMSQB3mOtZTAbHU8sIaIJIJhUgpj6RiB767F+7DmCfUk/Gqlex8rxcYKWySC4giUOAyCSB5VyJzD2zV7pfbMss41/ZzPauw3mfOmU/TTdPpI0INoNXO4LuM8SGZ8HN/EzJJSLDSL5oA0PSbV0HamES60pKgSIOhIOnIi9O4HBIbbShtIShIgR/wAuanjyk3JzXjLhuAk2J6c78z3r19R4SE6HmetrxPUe6g4hAWRmFwDqLxP5ivXXEkEayOQJ+FJzd0ktu6grjEoIygt5iCFZxOU35JlOttDWHVt5eCeWlnyFapaVdIAOqD83naT3roToS62UqSopWmFJuJBEETIj31kNt7rqFktKdajhEp8VrLyQq+dF/IrpaNaXcu/TXO1zs/biMSgqw7pDqRdDgHDNrwLpmNDV2Gusz/UfzrjOKY8JSVNuzIkFJyqSRqFCZSoH2HkTWt3d38Jyt4kgCIDoBJsPn359QOdallmxtWcOkSCkGDab25a+72Vlt4dkYsuB7OICQFHDy2pKUqnVSjJhRP8Ab71bH3ndexhaKSltSZQYAVAEgmZCp7RrWrLA0JUf7j+dBSbP24pHhIeBKVpgPQoDMIGVYMwokzMxemt48RhA0TiWwrKSEp+eZ0gpMiw1mLVPxey86TkyByeIrBUFQMoKxInhjU9Olcq2yy4h1aXElKkmADNkiwy5rlMCx6UER0gkkCATYdO3WtBsXfPEMJyHK4gCEhfLpBF47fDWs5RUDuJfU4tS1GVKJJPrTVFFAUUUUF1upvArCO5ozIVZaeZ6EHkQfxrpa9qoS0p8qT4diFCVSmwkACSJPsrjVWWyca2hSQ8jxWp8pJGWdSmDbuOcCqNTjt9FKeUGnElhKOLMnLmuJyTxZoMCfdWu2U64tpC3pQtQ4k8IiSYFp5Rz92lVmy9i4IFDzLMgyQqZEQRYKVa5iKtsRhAsyUAxEBSrApkhQTBAUJ1106UHruDSsqSorgpAstQ1J5giNBTymUAeUEAc+3rUbZmDLYUApRuBxqUvQDqRF55U5jWlFtQKtQRYRrbrQO4ZrKgCIgCfdQvzJHZR+A/+1M7PwPhNpbzqVlETpP5UYoobBWrMQlCibk2EGwntRZNpRNM4d5MHiT5lcx9I1H2btDDv/wCkpCiNRAzJ9QbipeGEJ9qv/I1CzXFMY0oUIIJGYaA9eRAtUBO7mFg/wSZMkGw9xIq3f0H9SfjUXbKFFleXWPu5/dNYyxx1ctben/zZ53OdOZaluvpNqjbDnhkICShAGZITE5gIBm8fG9SNiI/huEZZJJMmVaWzAGReTBqBspSS4G1nME31smQRBJEEi1gbT61e4AlLQQq6wkAlIJB1iDHFYf8AJrj0scrl3Wanp+r/AFDqYdLofgS7u+b8pCMxvmj+2ND3JpRHFckkjXSYPOPWkMvylJCVGw5Ry/mihxRzJIT1FyBqJ5T0r03GV89ZLxfucS2O/tJP3ExSGm0qSmUgwIuOlj94pQK+iR7SfwFIaSriEiyj83re1+9Ttk5JjjjyWoQUxbUe8T8QKcqO+2cpOZRiDy5GeQ7U54I6qP8AcfhMVpoNcx0J++/40jEPJAnMOEzqPb9xNBZRnukXHMTofjf7qdCRpFulBV7S2JhXlZ3G5UQQSgKGaTPEUeY9zyrM7z7pMpQCw24kiL3IjQlYNwAYlQHPStwwTlE6ix9lq8xKbA6cj6G3s5H2Vnt14al9Vx3ZmLUy6Fgg5OcmAOxH/J5V0/YO8LeJTwKSF82zOYey0juLVltsbgLQoHDrBSqygsxltNzzTI6dPWs7itnPYZYKgUqk5FpVN0nW3t1jrpT6rxrtdaKVBQJUL2MJ5jTUnlPuFMbW2Q08kB3iSOsCBr5gJTpNjyrKbD36t4WJ8wsHALSPpi0QeYprfzenOkMNKsoAuEHWRZMgwRBk+7rWmbNMltVppDq0tLK0AwFHn6dR3qJRRUQUUUUBRRRQFFFFBLYx7iQlIUciTIQTwm4JkaEGBIrq+7232sQ0FghKh50kiUm/3GCRXHal7O2g4wvO0opVBE9j1mx/xQdhGNbQjOtYCZJzHTiNr+2KcxL4yzBiQZiBYg846VyneHeV7EwkqIaT5Uaf7o1NR17cfLAw5WS2DMc+UCfoiJjvVHYGMRnSFJAKSJBzCD6FJNJlZWRCRwjmTqVcoE6da5tudvWcMfDcksk8hdB6jqNJHa1dIw+JQrjSoFKgmDOvO3vp9RX7O3YZae8VsZVnNMTHF2JtHKKssM2colRvflzv0pf7wnrPpf4UnDu8KbK0HIjl3oI+PeaRAW4AbKhS4sCJMToOtSVMJg2E9xNNv3jg0IuY6joTTgUsk8IA6lUz7APZrQRsNg0BwqyJC8oJjSTmkj86nAc6jhKs+ounp0Pr3pzwj9NX3flVnbL4Orc+pJu3j5+HjGkRAFheZA62sdbX5V7iPmmIgj77fjSWkSLkmCoeY/SPekYplKW1qCQVJEgHUkX1PpWcrN7cscdSW7448/uZ2ttlpgJ8RQlRhKZAJ78RAgT1qq3b3waxCikjw1nRJM5tdCNTEWijbW7QeYKnljxkoJzZiltB10FsqRIk3jWart0NzlMu+K+ElQJDaRcSL559hikldJL7bErmwQoz2A+JFJYWrKOG+lz0tyB6Vkv2gbwuNfwG86CoAlYtbogi+uvu50j9nu8jjhOHdlZupKzqBaQfbee/pSW7JvdbEtuKKYyiD3NtCSbQBM+yluhRJlftA198/CvVrGVSSYka9+XqO1NvvhAPziBMIuTaeH15TFc8bb1LL8cfp7u1hp1xKJzuQnzXIEnQxAk2AMDvXuIS2lJKyMvVSrX/AKjFVW8+y/HQkpzZknhCpCQTaToeftFYDaePxCEnDOiUoWSnMmIjMODom/LoLxWpjZb8NbjqzYTlkpAPO3PTl3rM717zNJS4hKkqcSvKkATEROabWPTpHWqfYe+y2kZXD4ggkEg5rAAJJm2mpmZmZscvtLGKedW4rzLUSY0HYelWzfDWHU7LuTkY/HrdylUEpTlkJAJEnzRqbxPYVEooquYooooCiiigKKKKAooooCiiigKKKKArSbp70qwxKVDM2eXNJ7HpWbp1ppSiEpSVE2AAkn0ArphncbwNDjN48S8+hxsrK0k5UIEhItYRJUT872V0rZq1KZbK05VFCZT0MaVmty91nMOC84UhxSYyxOQeoOp7ffWmYbVlTKjoNAOneaufUuU1f4/Q0ce09qfiKXTDzVhJUbp5kcx0illhPMA+t/jXOa9pd64MNOqCz4hQDxZQDylMTPOny8nrPoCfhQEAKEACx0HdNOUUw05dVlebpHJPWKWuTIy2uJJ1+NCPMoeh94j8KcqCu2ktXglfCIAMk6TaZMDQ1T7qbbdxJcKhDbakhCwNZ4YUSTKoM+2rjaGyW8Qz4TmbKCYgkeUkAmNRzg9Kz23cEcKw2htS0pZaWorEgLWopSAYMTmUVQTIy2mrvZLtM332d4rYbmXIUpqdVKTBKUgAAykk3PLSqP8AZdhwXXswuEgQfUzI9nSrDcreYupcGJWCpK0qQpUfOkAAAWg8/wCaKu8BgEsuuuJk+I4D5SCJBkFSrEZlEj1A5CgsnMI2UlJSMqgQQBEg+lDFpHQn77/j91elw/QPvH51E2jjwwlTrgASEyYMzHITEqvp2oFYrabIWGS4kOKsBmEgnSb2UTEDU8hY1T797Pbcwq3/AAwXEpTCouBmBPuv6SeRNQMLslrFrViGX1DjCiCDwrjhspU2IB6EGBFW+2cepppRsopUnxGyRKUuc4SLnMbDnBig5JRUnHpAcUAQoAkZk6K/mEddYqNUBRRRQFFFFAUUUUBRRRQFFFFAUUUUBRRTrDKlqCUJKlHQAST7qBqurbk7FaaYQ6EytwBUmJAMx7YVBPw0qi2B+z1RheJOUcm06/3Hl6D31osLi2sIhllxxaUFP8NaoIOpIMCxAI1/CtY43K6nkXTyoST0BNepEAT0qHmacbUpCs6YVcKJGnrFLbeaLhbAlQFyE2GlirQKuDGsVr8PPmavHn6B119MRmBunQzzHSlF4cgT6A/E2qpw220PPLZBU24y5BQQP4iQQJFtLg9dDV1WbJNBhbhzJhBuSLx0nr2qkxO+mHQpaVEyjsTnuRCLCYjWwvYmpm9S3E4dRa8wBPeAlUx0Mf4vFciTmKkxc2A/AVPSc930dqZUVHMlQhSUkcPLijU96dDZ+ko+78AKhKxSWENeMv5oQVEeZUpAskcyT6VY0VEw+EQFrVHFMEyZIgETflmoSy04FBTQgKykLQLxBkTqnmDTvipSoyoCQDc+o/ClB4cpPoCfwoMhjtzAhDymSYW0R4fMLStKhlPOSiIPU1dbtB04NvxVFS8pMnUQTAV3EAHnViy6ZUMqrHsNYPM96cJVySPaf8UA68EpK4JETwgkn0Auay37R282HQ5lUUgzlgjLmTAUrpHTqYrS4YKygSm0jQ8jHXtSNobPDza2lrVlWIMRaelqDjWExi2jKFEXBjkYuJHOrbbG8zjxWQVJDiUpWmbcNxljlP8Ay8VSvsKQooUIUDBBpuoCiiigKKKKAooooCiiigKKKKAooooCiirzdbd1WJcjRKQFK0uM0QO9j7qBjd3YTmKXlQISPOs6Afn0FdP3e2Ezh20+GgZikZlnzKm9zyHYUrZ+zkYdtQaQlIuo3JJNzew00HapzTSgACoWHIfmTVHrqwASawX7S9rHgwySICQpcdfmg9LXjuKtMTtZLhddK1FjDyBy8R2LWSAYAsJtJnlXOsdi1OrU4sypRk0E/Ym33cOFpQeFYgjp3T/NW/XtltrBeJh4dgT3n5ylgXmxUdPdXK5qZhtoOIbW2kkJWLwojpNgYMgRcaE12nWy1q3x4/72mi8dtdxb5fCilwkGRaCABbtauibn70fvKMigPGSOIaBQ6j8RXK61/wCzTZZW8X+TXeJKgeXMR6a1yt7ruq6A6FkpnKBm7nUEdutZH5F5cehSUnwLrJEQkj5sHQSRAvb0raOiwPcfEfnS6WaZxzxzm8f0+zL7/wCESWQtTqxkCikRIUq0ZrQOnLXtUndPaKnmm1OMrMpP8ZRSQopJBtOYEkG0U7vs1mwjo6Jn3AmvdzcGWcG0lWvET2JUbWrLVm1oEwsW1SfuI/OnaaeUAUk9T8CfwrxOKQdDPs/OqFA8RHUCPZM/Ee+m9oY1DLanHDCU6/kOpOkVmd5Nql9S8PhytLrYUViQnMkC4CrwZg941q02C0t3Bsh6HMyASV8RvoeVwOcz3oKfA7xOrUt5C84m+FMAhAtKDqpzhun+b0qy2hvOz+5l9C1JzApRbiC4PCbGDbW451md8d1FYb+MyYRMqSDGQg6pvpe3MVkXXlKJKiSSZJPM9T1PegXjsSXHFLUoqKjJJiT6xamKKKgKKKKAooooCiiigKKKKAooooP/2Q==;" vertex="1" parent="1">
          <mxGeometry x="160" y="960" width="264" height="191" as="geometry" />
        </mxCell>
        <mxCell id="oj0V7E_Q8fi1NZaQkgy_-14" style="edgeStyle=none;html=1;labelBackgroundColor=none;endArrow=none;endFill=0;strokeWidth=2;fontFamily=Verdana;fontSize=15;fontColor=#036897;exitX=0.625;exitY=-0.016;exitDx=0;exitDy=0;entryX=0.75;entryY=1;entryDx=0;entryDy=0;exitPerimeter=0;" edge="1" parent="1" source="oj0V7E_Q8fi1NZaQkgy_-13" target="oj0V7E_Q8fi1NZaQkgy_-7">
          <mxGeometry relative="1" as="geometry">
            <mxPoint x="850" y="960" as="sourcePoint" />
            <mxPoint x="692.0597260273971" y="817" as="targetPoint" />
          </mxGeometry>
        </mxCell>
        <mxCell id="oj0V7E_Q8fi1NZaQkgy_-16" value="Text" style="text;html=1;resizable=0;autosize=1;align=center;verticalAlign=middle;points=[];fillColor=none;strokeColor=none;rounded=0;" vertex="1" parent="1">
          <mxGeometry x="750" y="1080" width="40" height="20" as="geometry" />
        </mxCell>
        <mxCell id="oj0V7E_Q8fi1NZaQkgy_-18" value="" style="shape=image;html=1;verticalAlign=top;verticalLabelPosition=bottom;labelBackgroundColor=#ffffff;imageAspect=0;aspect=fixed;image=https://cdn3.iconfinder.com/data/icons/strokeline/128/09_icons-128.png" vertex="1" parent="1">
          <mxGeometry x="2830" y="170" width="128" height="128" as="geometry" />
        </mxCell>
        <mxCell id="oj0V7E_Q8fi1NZaQkgy_-19" value="" style="aspect=fixed;perimeter=ellipsePerimeter;html=1;align=center;shadow=0;dashed=0;fontColor=#4277BB;labelBackgroundColor=#ffffff;fontSize=12;spacingTop=3;image;image=img/lib/ibm/devops/provision.svg;" vertex="1" parent="1">
          <mxGeometry x="2300" y="410" width="230" height="230" as="geometry" />
        </mxCell>
        <mxCell id="oj0V7E_Q8fi1NZaQkgy_-20" value="" style="aspect=fixed;perimeter=ellipsePerimeter;html=1;align=center;shadow=0;dashed=0;fontColor=#4277BB;labelBackgroundColor=#ffffff;fontSize=12;spacingTop=3;image;image=img/lib/ibm/devops/provision.svg;" vertex="1" parent="1">
          <mxGeometry x="2560" y="410" width="230" height="230" as="geometry" />
        </mxCell>
        <mxCell id="oj0V7E_Q8fi1NZaQkgy_-21" value="" style="aspect=fixed;perimeter=ellipsePerimeter;html=1;align=center;shadow=0;dashed=0;fontColor=#4277BB;labelBackgroundColor=#ffffff;fontSize=12;spacingTop=3;image;image=img/lib/ibm/devops/provision.svg;" vertex="1" parent="1">
          <mxGeometry x="2840" y="410" width="230" height="230" as="geometry" />
        </mxCell>
        <mxCell id="oj0V7E_Q8fi1NZaQkgy_-22" value="" style="aspect=fixed;perimeter=ellipsePerimeter;html=1;align=center;shadow=0;dashed=0;fontColor=#4277BB;labelBackgroundColor=#ffffff;fontSize=12;spacingTop=3;image;image=img/lib/ibm/devops/provision.svg;" vertex="1" parent="1">
          <mxGeometry x="2460" y="750" width="230" height="230" as="geometry" />
        </mxCell>
        <mxCell id="oj0V7E_Q8fi1NZaQkgy_-23" value="" style="aspect=fixed;perimeter=ellipsePerimeter;html=1;align=center;shadow=0;dashed=0;fontColor=#4277BB;labelBackgroundColor=#ffffff;fontSize=12;spacingTop=3;image;image=img/lib/ibm/devops/provision.svg;" vertex="1" parent="1">
          <mxGeometry x="2740" y="760" width="230" height="230" as="geometry" />
        </mxCell>
        <mxCell id="oj0V7E_Q8fi1NZaQkgy_-24" value="" style="aspect=fixed;perimeter=ellipsePerimeter;html=1;align=center;shadow=0;dashed=0;fontColor=#4277BB;labelBackgroundColor=#ffffff;fontSize=12;spacingTop=3;image;image=img/lib/ibm/devops/provision.svg;" vertex="1" parent="1">
          <mxGeometry x="2410" y="1070" width="230" height="230" as="geometry" />
        </mxCell>
        <mxCell id="oj0V7E_Q8fi1NZaQkgy_-25" style="edgeStyle=none;html=1;labelBackgroundColor=none;endArrow=none;endFill=0;strokeWidth=2;fontFamily=Verdana;fontSize=15;fontColor=#036897;entryX=0.5;entryY=0;entryDx=0;entryDy=0;exitX=0.25;exitY=1;exitDx=0;exitDy=0;" edge="1" parent="1" source="oj0V7E_Q8fi1NZaQkgy_-20" target="oj0V7E_Q8fi1NZaQkgy_-22">
          <mxGeometry relative="1" as="geometry">
            <mxPoint x="2675" y="401.82247899159665" as="sourcePoint" />
            <mxPoint x="2855" y="284.5010504201682" as="targetPoint" />
          </mxGeometry>
        </mxCell>
        <mxCell id="oj0V7E_Q8fi1NZaQkgy_-26" style="edgeStyle=none;html=1;labelBackgroundColor=none;endArrow=none;endFill=0;strokeWidth=2;fontFamily=Verdana;fontSize=15;fontColor=#036897;exitX=0.75;exitY=1;exitDx=0;exitDy=0;" edge="1" parent="1" source="oj0V7E_Q8fi1NZaQkgy_-20" target="oj0V7E_Q8fi1NZaQkgy_-23">
          <mxGeometry relative="1" as="geometry">
            <mxPoint x="2633.570436517457" y="637.859126965086" as="sourcePoint" />
            <mxPoint x="2585" y="760" as="targetPoint" />
          </mxGeometry>
        </mxCell>
        <mxCell id="oj0V7E_Q8fi1NZaQkgy_-27" style="edgeStyle=none;html=1;labelBackgroundColor=none;endArrow=none;endFill=0;strokeWidth=2;fontFamily=Verdana;fontSize=15;fontColor=#036897;exitX=0.5;exitY=0;exitDx=0;exitDy=0;entryX=0.5;entryY=1;entryDx=0;entryDy=0;" edge="1" parent="1" source="oj0V7E_Q8fi1NZaQkgy_-24" target="oj0V7E_Q8fi1NZaQkgy_-22">
          <mxGeometry relative="1" as="geometry">
            <mxPoint x="2736.429563482543" y="637.859126965086" as="sourcePoint" />
            <mxPoint x="2812.4674612258877" y="782.6997929135696" as="targetPoint" />
          </mxGeometry>
        </mxCell>
        <mxCell id="oj0V7E_Q8fi1NZaQkgy_-28" value="" style="aspect=fixed;perimeter=ellipsePerimeter;html=1;align=center;shadow=0;dashed=0;fontColor=#4277BB;labelBackgroundColor=#ffffff;fontSize=12;spacingTop=3;image;image=img/lib/ibm/devops/provision.svg;" vertex="1" parent="1">
          <mxGeometry x="2670" y="1070" width="230" height="230" as="geometry" />
        </mxCell>
        <mxCell id="oj0V7E_Q8fi1NZaQkgy_-29" style="edgeStyle=none;html=1;labelBackgroundColor=none;endArrow=none;endFill=0;strokeWidth=2;fontFamily=Verdana;fontSize=15;fontColor=#036897;exitX=0.391;exitY=0.13;exitDx=0;exitDy=0;entryX=1;entryY=1;entryDx=0;entryDy=0;exitPerimeter=0;" edge="1" parent="1" source="oj0V7E_Q8fi1NZaQkgy_-28" target="oj0V7E_Q8fi1NZaQkgy_-22">
          <mxGeometry relative="1" as="geometry">
            <mxPoint x="2535" y="1080" as="sourcePoint" />
            <mxPoint x="2585" y="990" as="targetPoint" />
          </mxGeometry>
        </mxCell>
        <mxCell id="oj0V7E_Q8fi1NZaQkgy_-33" value="" style="edgeStyle=elbowEdgeStyle;elbow=horizontal;endArrow=classic;html=1;rounded=0;fontSize=36;strokeColor=#0000FF;strokeWidth=8;curved=1;entryX=0.5;entryY=0;entryDx=0;entryDy=0;" edge="1" parent="1" source="7c3789c024ecab99-78">
          <mxGeometry width="50" height="50" relative="1" as="geometry">
            <mxPoint x="617.5" y="1440" as="sourcePoint" />
            <mxPoint x="580" y="1520" as="targetPoint" />
          </mxGeometry>
        </mxCell>
        <mxCell id="oj0V7E_Q8fi1NZaQkgy_-34" value="" style="shape=image;verticalLabelPosition=bottom;verticalAlign=top;imageAspect=0;aspect=fixed;image=data:image/webp,UklGRooYAABXRUJQVlA4IH4YAABwuwCdASpWAvQBPpFEnkwlo60iIhFJCaASCWlu7ulSKOAQFbJMn/GerrxqiA+yzONPN/uD4s9kjcDw/0LlA/dP+7cY9E2Tz8+P8bzg+z+w6yC+s1/recz651HQRfO+UT3+PnAonv8fOBRPf4+cCie/x84FE9/j5wKJ7/HzgUT3+PnAonv8fOBRPf4+cCie/x84FE9/j5wKJcJYRIC3MNYoBpeVWtFXlx9YON6Cie/x84FE9/j5wKJhjL/mXi4f/jiiVvFUDciPOjHzkXRyRANF9U16qMusd97UjSA5ZpF5nZ/1BAipuOE5XCVCtVzrRKfarnWiU+1Hy+x+sNeKfl6lA7QnZjSKOTfQF5MVEZ6YrTuAUMe8oupkNxJIN+tURK4UtCRLdGX6jcdyYIQTRsp7X1vtVzrRKfarnWiU+xtmBiy8omEDcpDE4j7jr5VwlMT6PZ6gSVu3VKI7h+i1E65cFbteNpKMUfnl4IsJ7/HzgUT3+PnAol3Cl/uJSWwBory5yUOAyMlzuTlrK5Rhk+biAndQbWx2OvTNv//kwzsTUPhGVTaJU6daJT7Vc60Sn2q51ViDjRfVHBizDevAXbZZmNMjq/h1ntcK/CGfH2j5wKJ7/HzgUT38W6c/kv4uTxHed1/MIC+pxoI5i1Ws/NElB7Vc60Sn2q51olNkWtItGOMdzS6f4lieuMkuMWEiUeiO1rujfLo/aqbTHXnG76VZM0GWlolPtVzrRKfarkHUwmnUV9vCT/5uzfpnpOQIS73jGiSwEygRsMdh4MnTk07ncz+NETK4MFFarnWiU+1XIM3H+2hwfl9RfsTHKpm/tKLgmfBhpJbEpc4RWhHCuIju1L8XID+QD5wKJ7/HzgUT3+HkcH+5z0ih1DXINfnLTcc++YqROzW1Zv7EUPzvlE9/j5wKJ7/DnprS8iMh3K4Cz4+sVVL+XEha4kotbj9JJS+rDrYCK8Q80GCitVzrRKfarnVXI3oSiH3XRxXfKaElqmTVNUXOSlGziuUsECxP8syATPNBm4NpvhH7R84FE9/j5wKDmf9rqh1OXg+oPlFWVdGuPGr6wirmillCf6hnsocK3UPbukCFKiSn2q51olPtVyFHqz4VJg1I8whtAgJSGnt2DInuqHiJPchRgp0k0VCC3VlE9/j5wKJ7+WgLmYqMy4RC0GrQ6tp2YPhGLNQg3RYalzola6+n2NPicPHfKJ7/HzgUT38tJakeDA0X4dDFx15lnYaAB0ukKqW3d57VTv2ALasrQ75ho+cCie/x84FE8rr2l/jUploPhFSkfVYJD/TYGdOgOAaPhMzWuyQL3k5GM+QrODWfPzGmdp451olPtVzrQ7+xZMEpqu23n4H4H8bTBOB9/mNpr7CPahx6bbOocaLa6ODAU9sEb9TmTckp9qudaJT8icW0iCRr0kecr/iTHiBZxZE+SUrWOvn65L9tTg6vsCBj/t6QqcP/7j3rrfJoWr2IaoQSr5twxRIGaQCC/6M3+IhFMOErBUQ67WitXv2SMM8jl1N9kMrDVCY1k9ZRvFGF7a479ekc5BOhl3FbMtYGByIEAVl4ujLYqw1iFjGRlP2b4ScLD11bzP3yiidetFE6VeI9TcQUKFT4NUvr8kgy02BFPhK3Vw0Ykhf1zxIka9RR6FQBlp+4IDfeljSaJ/Xr2s6RbsPbfbANrJhiZ5U0hr4ftW/8DX3HRdY/Una8i1FOypPfpnuCleWNvuUbsbQRZP+YUJajIgHzgUUDx1fyr3z2jJZEo/CvtjIGqb6IQIxvy1TM+HBY9gvu061tCK/zo9m77vw9j5V2GW78ZiaNsxiFh+0VsJfA/ZFWXAPwXazyp40/9gAijfjP5SGXyKFs+SX0uOKY+sSLkf1imphq5SXuz4+hXbZbR84GuI4eCaXOYWtdbhmMF/Kam6PDVRPf4+eZGkmobxewVLKOlIA4FE9/j5wKJ7/In+ff3U5XpNk9/j5wKJ7/HzgUT4Cg+PoVu+tEp9qudaJT7VccAAD+/iLAAAAAAAeeli/f4gB6wjlme00Frqv6g6Po+TH96x9ZnuwdrarcOpNpASgjEtRlfCL6k79ehJVRazXgo3MidQvLq6bBsOoipsx3bZOH5nuBvo9/938F/9x+qelQviDc1i4ohfCxy2j2dq0AV/LBZ2Y9+aSu3LG8dtXgACe1uZFoUjbZxK6IRoTfywH/eT+w9SK2X+qfrq1+LWLnwgFOlmv+39FS5aLbmlsKi1sDjSEnGzegjjJZ5jKG+z6joU+utijtaGzmBgToIceMO/d3Aqe9b6sZX/LyQ9tlwV1hHwgxrPEdde+C1M0fJuwMSHsTgP0CRSbINYwqjAR1hTbcqweP2HtqI4Mru+Nrr2TFEGvAzs1V+uCGE+TqHV5psOdKq7UCOuHTM/XjyR7Z4IrSFIS207DTzYMBU+Hbpet+Jh+QJ+luajboKJbwdO4ATcGO7giXbYshzp1qFBsCwP2xzhd4JejQBGtxbuiR3veHXC1kO2d1lwhn8eeYrX8/TIWhCZUqHRoKarwEvqhU0hPjlFXMhXiaRDdQqkSq39+lNw4CT7pkJ9zZXTpgQN4RQXAOEOKy5zdXg9URqFb7j1AwFa3gvzQ4l0P9w0OttwsFfL37gtDEdxemegxTXC0GLH8TKhtmExD4vY3bLlCzDnIKZpYEM4GqpN4Tgdq4pxZGifAB0h89tjyl/SWuaLpoG4ONJmV8o9ivBetibUAlpEEjaKqwhuMy2kWB5qudJ1iSJGBKxl1qCJ16jr52eu+jm98d0ux+zd9MFjPW8UYTDluqLFJRRwKpykSy2vyUUwfIaKXwjeFgw8m7I4avg9/DSg6oDc2TgncD2ryTnvcz/1PLLdjIKrasLgPkUHoa1lPxlEwTyGIUy/dAz1u5AQu2KPDvnwzukADt6KLYiaLaJOVney6ax7VW/494I1OUmsMOwa8vh/1jw4Ah7NCnqIP6ARexDAL0AwmEQtO7UxUNtfnhg5e82fzzTiPrr3AnwIjvkh7piSDo4AJjkSUbSfMWf92w4vvr8gSCc+7I/jd+9Rxs4hmOL4kMgCtMt0UHJ8tSOSenu5pzd8WaTgv6sNn1Kh55KEp/y7+aicHSDcNg+9IEwivQG8bgisSlVnTvqL+BJ/CS9z30E4lhD5nB3tna9SOyoktZUgMTH1I8Bo3j8X7xxcw5O3rNgDEQ1wuf9fSUyPoGo7LL2d17+zoGcmu0fa+AcPOnnGRS49dnKR8L4ZRvk7yZ+I/DhX+Cidm1abSju/CmBQXZwiTJzI0sXxt68abKNMfRdjpla6yVxOSPXYahDL8O1JoKevEq3n7baWhGZ430oVsUz6vOkTlPA7nNMyGXXeLfQm+hob2aGkMrJpYa+DxH/urmuz4S7l0oaEGYUe+4w+v7v2THLA+k0HXicBKHnMO86welOETC0UjnecsF2XokUTBTi1cHoE1S6CCBCx00Gqxf3r1tgQA9QKpAYR3rSHRNFfmxKRHuQwfqGImDEJJ7OWtJiDuNLBj6NGw3N5KHtAldFc9sRpUm/bSjFSUBj9CH+8PYzvv84fvIXofWgZprEtPyz0rjr1KVJdYxbxNy85KAA4eeKXcr+7jXEBwbrNkIMQJDG/axtinIe8vuNdGldNPZJ/3ZcOX1TOjkEgK8tNJt+P2OlqUHPJkQwTYgrOCcTMAu1KYGVO09aPtbN8uvoN+BKoDXPdGX7jbKCr9EjrxI7D4oWS+OLeY63PCwClInVS0erutkA5dVysoFTQxoH9VUDcHmzU0ajtBGV1Om8zcc/Y8Y5ZYpHwmcqWsLmIe4JhnpudEpYUpt0H26QH7riqX/p1CoKWpHcNPn4r7eyEnMJ4OPdiqQDSP382ucAsdX8komo+bCFdJRo77wa2z6xwNeK9D6Kf4kmcLpLdL2Z4Vwar7769s19NnY60akw+u5kYDWDjmwLWLRnSwzQrQme5zWHHjXrHGGF9cGtOADn9/CX37eaEMVw5jZSN4SJ8Tw28pwiNRJ3m7DyBMnUR4hiZzZRL4Bi9HCKrOXCr9NgYenwbgG0AA1lpuzet+quo4vCPieNDgiXpWVMBbKt47VemANw1nAufG7hKxGfD6QsKy11joH2yvAfkUlVrUhNXcJb1oIK/bAkGaNA/Cn+/4CRN9k8xAwRMFHf9u4LHMbKpBRB2MW/xTmF4Jh59uUUP6gEsLiuTOaMrIRCPEEx515coBEpzRNzUAaHm4fZAXIgVssRprv9Ev4IjpGsQ6anLwLQSVkMJuBI5er4N7tuYS1e5rtWjWq8ItEqYEENDbamiYrqAxqsUHFclqw6Fpw+Pv3+m80epe+WSbMKHsuXazTKVChepQyno2oVIZ/LnD2pOI+UDar8vXW76sPoKxuL6PRVrpNcwcTx0qBKY7HZFohZGN+BK3qMwMs5g4NuUYWOKeL5k81vXRuzLx8NNkBuRwAyDaCEXXWeEpz8id0R9+CkU66vQ7Yy9qIbGHP22eqxKXyFJqJ7GGM06JiZXkWRAONZGb6jpVpOBxKCIZpjTlyZT3lMU3WtlO5Gy56hc9L1KKiQD20cp6CgnWwpYpU75vpDThwCahfDpjZDEF+MCxJ8Xh84KseOwL0c38UgVbhPVpM7SG8kpDBNwUMfQ6rgaCTm9R/KLlpYslNZgLuzeSTsN359oL4PWC5aoMD+2yeoJWAbQk1nnrMIBJiIaosk6YP/4TIPMGCNJ2n5kYwenWORYGO/eG/9EKHXfOrMLlOLcYCVKT9OQ+aAkjS2qgeRCZz4O9tIAWhRN1qqlQDg+Xa2m+8y8GV/RF4LIDDgzO9eLUb2R6h+x1j2jmjx1B2xapFqNym+SH2OnAbJ9DpcN8HOkGwOPVvzVljpqFQsj801NNMeHn+i90j+A54PoAAyjJWp3dBGDK98xb3ywO0yl+eSpau0rtRBgbOmcFQKoyjM5uxMhc8Cm5TjKvs17c8op21L7Xf0jgCVitDFFtjSmIacGbZTVycoDzyMe3a5Lvg8PaOxivR/5Pi3rTIy7ZQAD3wOn6f9qiWSCw687SvRab0vjjv8xFn1V5vRosmHK8g3ILbde6F1LxJbkxefD9hHNTLM/JR3fRIx8hykh2KWMp7yiCOVynMKxbX9CmN1w9UkUvPVQ7FFIIdSRvqTOdHNM3UiPXeREdXj8U6rFdkyurr/BDoXwRBhWE9bh/oYXmsJ4zdVgCI2Oudl3NsRRj7nKMkrRKvAnpreVW5eQaiHdDeyjs1L2y6zpHgeHDMNGmln8MsDFnvKH13fF2mqUQzYiupHH7zX4bbJYcGpHZoyEbQ0yvfsdHVGgkgpBIAhFCeNJ7PLrCngaG5qWB7uDeMzhqVDeTSUyBy8dbvt2cmcBvtZCIqRiVzGgKKWFiZ/EHxkgboUoRBkh4Rho7dS0j9JFEGkHv/2Fy+D1cviRA0+8k/rakZMfYe2CkrHCa7kBfgu2wF1KCm9xwpF7WPRlXK/vOCY+aJ70rK5LVOpSWLzvkp4zC+BuTiKE9TmVPa2GEm5LsvvnHIG8frhiN6dTuRqFP4LvY7vwQiS/7JZU4CeXq7rEnNiYLi2/JgI1MLm7IJlXgozYsh7DsANeLqMGu3/wbRWQbB3nNaf8gMOKnegwXF+gJ8Tb2QCR+vCpSEmWOZmJfXKcJ0tPRD4/kT9RZoKDsPw9ymON+T3ZZqRcFDTURwp9X8zXjfvRhaYxI9EfRM8FXu65lAXUbCECs+9CEs+hr1AjCtebmizigCzNlZZdybSzo8K65UEm9+h234fvzcj5xaRDaqXef0pOIYcevgL7wcZxH7Q6W25/t3zPMYwbjQem+8vWHlTyspkHez++Dh++kKWn3hqZpsY4GhGUQ1UspOEvi8c/FzL5e0ur0+3oAFPpap8L7opm0a4AWRQ0y44PBRfYvgC6NwPw/WRJgXheS/AMCOP1GiSq3skN0ZiaV+Hvc5xwhmfkcUeIhzaLqw9YR7V1Up0IH0/9TmmBDBxrTKUbo2Cr60Axu5OJqxjw0TWRvMqExO7BRqbIl5Nz/5Odha29Q8fvZkwsZg51fJREH/xuHYj/bVACIdyY6OfXwKyJm/H8ttfN3/7UqIzSof807L6vRArxYTuusFyciIVnIQgAR2mXjMblUdIMj6GgzU3bvIGShS7ccboil8vkM2UgA3yz+aVYuqYCAIMuR+2Xt/NNhx6GcUfzUHbfeuNeQW9tSDN7luT06di1EXB1coDL01vUc1vC4X8WHTzJ/NvEdDDFpf1zHSn+S2dvL36su9TueMuybcImTRUkvgwVLQ/56Kw2MMRu/qJfC5TKcUFVEfOf72kEB9+T7U7J/nS3NcJQZ5RUPHg/bH13qDxhtJawP3FD9mN1N+sKp1c08bsqc5STaa8svKJTLuoUTuQY+cNCjTrMo83nQRQf+yIizDwD51i1HucEcZa2w49QunDGSwTC99UdMgs4rWbj80Pj7fIVktWKBGtrU8xirevWsWsOwpmQ/R3fOXP9rStXmbfy5MJ5psko0h+JpB5f4iDjRNzIdiYV6igQEHtQkhb6CNInA6OTU8qQHkA8Ax2HyVwW5Wn5oYHb2Umgx2QT02/4/so3QZvLxPMecc/njzSjohID5vHHcFoN2zwZoIl/2Ucxuc1rCTNrCPKANtEMUXk/f/41ZruM+sHA05/9Gc8QFpmxmr0IpTzPMlvlpa/8TnrVR2tf/BUaBmsMz7jgixNM38uerk2Oh7zyLa5UEb1OCg8I2sNJ8mHHZYIGwR7wquH1PMFQuchm3Wxleu1YgBextbeBzwsNpEgQh/ZkCupVNw5mVJeqE4pmqGMmrEYE3GLfL05I71X5Ys+u8qNeXeXC+pJnN5CDxs44/fodiset4a+UDHJVCAQG8PjXXHKfyCgTY2b2oQQTz3hPcGglmgnnbZM7UL64tN+q9scMgdUk8WWpoz5VZJQrqSUgALEyApI0NiRMG6/AgQddhelwhiZhMA3o0qi03Y2lYvDcA1QTwY+4B0OacT7EP4vNlSIc+Fb90fme60NhGt9RZ6BZj7mFHHMv9qn4R6QqcF/u+ZMnSqo0k7kK/8yXJnYc0f2j1O41XHjtGmdifHv3kEMPkRaMuO+sdsVUVNdlgHCJ/gyKLxu0eV76pdEgRp/p16z/C/XCkPrIabSiayowgrCmI8oIJA1QbNBl9m6VRzkqZWi2zQRaLTy+iUNmrgs8ka/nSxPW1Oba26PEMs1oLIyBLWCuVwtmiQ0HfPhyOykPiLspB76VtOgl2WZayysNaUNjKvyHb43Ruq30Q0QSWKF4wCM80O6Ke5iCoy0ng0MZO7i2OzugCGaXnWVx+cckTpHGKEEwzEwW/VSwyYLaWb3dYJjopvZRo/U5cKqTDWXPMH7hWvZP4pVNaz9UgzoVBGh+xa7S2IquQPrZlMjLx4rgH+21DRcrDKELlQHCj6sWOuCPAoaZlSUt1nJeyRiai345kk6klbkVEb3W9ywxJ4n8UECATEB6n9BJYYtp0I/ZACb+jkrZc24mSASLgBIjwjOJc0ohgRdh8vbpqtW2G6pAvZSQ/khb7tVemQNL4Z5L8wAeekparc6ozwqDU/bNbW4GHEE5AvsHhneFUp4v5SmL0oBmaI5OurfkNGc1QYvxigqSiIQOQWWsKPMQpyRRSU6T67a+7ewLe/O27YWQvdQowIu04zUuyElX+fhdYUipmSB6gctiRxUYQwaAsQIFaTZmYLWSmb7NJH6DsbOYYgujstRbDVmE+7LXq2KTYHjAbHXDiFEgs3tof+NEE4Wb4GVWeqXoEyPhFZIX3rvY2YLN9q8b1cUdYvTnYgAETuuLVlvsKUC90i6b1Y2SoJaG4HUEjNzzRcG99dZ1fLRtxh3rluHkMvOZHp+PRvipFdRKCkilgm+dLA4G2QJ7SOraZurrBzNtEuoF+Pn7e+l70fdpPguIG27SHx5TbOda9RZQgMQJMbdHkW/T61li06tn/MfzPNI5MsBbp8yNuvdSqhD26BO0JSMaaXyKIUbbJpKVxHVAnpp0l/wKRlETxme7pVkzEkt6PIeTYhqiczAdIHZSQ/OzHJHjglwD0aisiGesXeGtWZsw0MmwAFU9fVBGc96t4JGCp/pGdQwAi4MBzdFrgCDzExEszmg9VI4xEEF4xIFRl8FrNGHdMFqLV0vz8hw9XW4rq+XzcRxTl/6RPpxmRG/2E9F1mj9joAIvUTkRBXwxDNhh5fzEmsf74qta1M98DARN5we3wb3RwHaaNdkyulvjqx0jrncL3/ElEZgXXEiCI5vLQmGP4YRinfcbdzfUS/+KH9oaR5fvCS92u6TPoY1Tu1JZpxsTe6xDUJYAIKgurwTRI2/D1wNzLP60X1rJBY8jjSQXRAAAA=" vertex="1" parent="1">
          <mxGeometry x="318.5" y="1530" width="598" height="500" as="geometry" />
        </mxCell>
        <mxCell id="oj0V7E_Q8fi1NZaQkgy_-35" value="" style="shape=flexArrow;html=1;rounded=0;fontSize=36;endArrow=block;endFill=0;strokeColor=#0000FF;strokeWidth=8;curved=1;startArrow=block;" edge="1" parent="1">
          <mxGeometry width="100" relative="1" as="geometry">
            <mxPoint x="1270" y="1080" as="sourcePoint" />
            <mxPoint x="2190" y="1080" as="targetPoint" />
          </mxGeometry>
        </mxCell>
        <mxCell id="oj0V7E_Q8fi1NZaQkgy_-36" value="" style="aspect=fixed;perimeter=ellipsePerimeter;html=1;align=center;shadow=0;dashed=0;spacingTop=3;image;image=img/lib/active_directory/interface.svg;fontSize=36;rotation=-90;" vertex="1" parent="1">
          <mxGeometry x="1618.2" y="1201.8" width="170" height="79.9" as="geometry" />
        </mxCell>
        <mxCell id="oj0V7E_Q8fi1NZaQkgy_-38" value="Text" style="text;html=1;resizable=0;autosize=1;align=center;verticalAlign=middle;points=[];fillColor=none;strokeColor=none;rounded=0;fontSize=36;" vertex="1" parent="1">
          <mxGeometry x="1770" y="1175" width="40" height="20" as="geometry" />
        </mxCell>
      </root>
    </mxGraphModel>
  </diagram>
</mxfile>
